<?xml version="1.0" encoding="utf-8"?>
<!-- Generator: Adobe Illustrator 19.0.0, SVG Export Plug-In . SVG Version: 6.00 Build 0)  -->
<svg version="1.1" xmlns="http://www.w3.org/2000/svg" xmlns:xlink="http://www.w3.org/1999/xlink" x="0px" y="0px"
	 viewBox="0 0 900 500" style="enable-background:new 0 0 900 500;" xml:space="preserve">
<style type="text/css">
	.st0{filter:url(#Adobe_OpacityMaskFilter);}
	.st1{mask:url(#XMLID_97_);}
	.st2{stroke:#000000;stroke-width:2;stroke-linecap:round;stroke-linejoin:round;stroke-miterlimit:10;}
</style>
<g id="tagline">
	<g id="XMLID_1925_">
		<path id="XMLID_28_" d="M161.5,475.4c0,2-0.3,3.7-1,5.3s-1.7,2.8-3.1,3.7c-1.4,0.9-3,1.4-5,1.4h-6.8v-20.6h7c3,0,5.2,0.9,6.7,2.8
			C160.7,469.9,161.5,472.4,161.5,475.4z M159.6,475.4c0-2.6-0.6-4.6-1.8-6.2c-1.2-1.6-2.9-2.4-5.2-2.4h-5.2v17.4h4.9
			c1.4,0,2.7-0.4,3.8-1.1c1.1-0.7,1.9-1.8,2.5-3.1S159.6,477.2,159.6,475.4z"/>
		<path id="XMLID_31_" d="M183,465.2v20.6h-1.9v-20.6H183z"/>
		<path id="XMLID_33_" d="M208.6,486.2c-0.9,0-1.8-0.1-2.9-0.4c-1.1-0.2-1.9-0.5-2.6-0.9l0.5-1.5c0.6,0.3,1.4,0.6,2.3,0.8
			c0.9,0.2,1.8,0.3,2.7,0.3c1.7,0,3-0.3,4-1s1.4-1.6,1.4-2.7c0-0.8-0.2-1.4-0.6-2c-0.4-0.6-1-1.1-1.8-1.5c-0.8-0.5-1.8-1-3.2-1.5
			c-3.7-1.6-5.6-3.6-5.6-6.1c0-0.9,0.3-1.8,0.8-2.5c0.5-0.8,1.3-1.4,2.3-1.8s2.1-0.7,3.4-0.7c0.9,0,1.9,0.1,2.7,0.3
			c0.9,0.2,1.7,0.5,2.3,0.8l-0.7,1.4c-0.7-0.3-1.4-0.6-2-0.8s-1.4-0.3-2.3-0.3c-1.5,0-2.6,0.3-3.5,0.9c-0.8,0.6-1.3,1.5-1.3,2.5
			c0,0.8,0.2,1.4,0.6,2s1,1,1.7,1.5c0.7,0.4,1.8,1,3.3,1.7c1.4,0.6,2.4,1.2,3.2,1.7c0.8,0.5,1.4,1.1,1.8,1.8
			c0.4,0.7,0.6,1.5,0.6,2.5c0,1-0.3,1.9-0.8,2.7c-0.6,0.8-1.4,1.4-2.5,1.9C211.3,486,210,486.2,208.6,486.2z"/>
		<path id="XMLID_35_" d="M243.2,464.8c0.7,0,1.6,0.1,2.7,0.3c1,0.2,1.8,0.5,2.3,0.8l-0.6,1.4c-0.7-0.3-1.4-0.5-2-0.7
			c-0.6-0.1-1.4-0.2-2.4-0.2c-1.4,0-2.7,0.4-3.9,1.2c-1.2,0.8-2.1,1.9-2.8,3.3c-0.7,1.4-1,3-1,4.7c0,1.7,0.3,3.2,0.9,4.5
			c0.6,1.4,1.4,2.4,2.6,3.2c1.1,0.8,2.4,1.2,4,1.2c1,0,1.8-0.1,2.5-0.2c0.7-0.2,1.4-0.4,2-0.7l0.7,1.5c-0.6,0.3-1.4,0.6-2.4,0.8
			s-2,0.3-2.8,0.3c-2,0-3.7-0.5-5.2-1.4c-1.4-1-2.5-2.2-3.2-3.9c-0.7-1.6-1.1-3.4-1.1-5.3c0-2,0.4-3.9,1.2-5.5
			c0.8-1.6,1.9-2.9,3.4-3.9C239.5,465.3,241.2,464.8,243.2,464.8z"/>
		<path id="XMLID_37_" d="M267,465.2h1.9v13.1c0,1.2,0.2,2.2,0.7,3.2c0.5,0.9,1.1,1.7,2,2.3c0.9,0.6,1.9,0.8,3,0.8
			c1.2,0,2.2-0.3,3.1-0.8c0.9-0.5,1.5-1.3,2-2.3s0.7-2,0.7-3.2v-13.1h1.9v13.4c0,1.5-0.3,2.8-0.9,3.9c-0.6,1.2-1.5,2.1-2.7,2.7
			c-1.2,0.7-2.5,1-4,1c-1.5,0-2.8-0.3-4-1c-1.2-0.7-2-1.6-2.7-2.7c-0.6-1.2-0.9-2.5-0.9-3.9V465.2z"/>
		<path id="XMLID_39_" d="M303.1,485.8v-20.6h5.3c2.3,0,4.1,0.5,5.4,1.4c1.3,0.9,2,2.4,2,4.5c0,2.6-1.3,4.4-3.7,5.4l5.3,9.3h-2.1
			l-4.9-8.8c-0.8,0.1-1.6,0.2-2.4,0.2H305v8.7H303.1z M313.9,471.2c0-1.6-0.5-2.8-1.4-3.4c-0.9-0.6-2.3-0.9-4-0.9H305v8.8h3.2
			c1.7,0,3.1-0.3,4.2-1S313.9,472.8,313.9,471.2z"/>
		<path id="XMLID_42_" d="M340.4,486.2c-0.9,0-1.8-0.1-2.9-0.4c-1.1-0.2-1.9-0.5-2.6-0.9l0.5-1.5c0.6,0.3,1.4,0.6,2.3,0.8
			c0.9,0.2,1.8,0.3,2.7,0.3c1.7,0,3-0.3,4-1s1.4-1.6,1.4-2.7c0-0.8-0.2-1.4-0.6-2c-0.4-0.6-1-1.1-1.8-1.5c-0.8-0.5-1.8-1-3.2-1.5
			c-3.7-1.6-5.6-3.6-5.6-6.1c0-0.9,0.3-1.8,0.8-2.5c0.5-0.8,1.3-1.4,2.3-1.8s2.1-0.7,3.4-0.7c0.9,0,1.9,0.1,2.7,0.3
			c0.9,0.2,1.7,0.5,2.3,0.8l-0.7,1.4c-0.7-0.3-1.4-0.6-2-0.8s-1.4-0.3-2.3-0.3c-1.5,0-2.6,0.3-3.5,0.9c-0.8,0.6-1.3,1.5-1.3,2.5
			c0,0.8,0.2,1.4,0.6,2s1,1,1.7,1.5c0.7,0.4,1.8,1,3.3,1.7c1.4,0.6,2.4,1.2,3.2,1.7c0.8,0.5,1.4,1.1,1.8,1.8
			c0.4,0.7,0.6,1.5,0.6,2.5c0,1-0.3,1.9-0.8,2.7c-0.6,0.8-1.4,1.4-2.5,1.9C343.1,486,341.9,486.2,340.4,486.2z"/>
		<path id="XMLID_44_" d="M365.4,475.6c0-2,0.4-3.9,1.2-5.5c0.8-1.6,2-2.9,3.4-3.9c1.5-0.9,3.1-1.4,5-1.5c1.8,0,3.4,0.5,4.9,1.4
			c1.4,0.9,2.6,2.2,3.4,3.8c0.8,1.6,1.2,3.4,1.2,5.5s-0.4,3.9-1.2,5.5c-0.8,1.6-2,2.9-3.5,3.9s-3.1,1.4-5,1.5
			c-1.8,0-3.4-0.5-4.9-1.4c-1.4-0.9-2.6-2.2-3.4-3.8C365.8,479.5,365.4,477.6,365.4,475.6z M375.1,466.4c-1.5,0-2.8,0.4-4,1.2
			c-1.2,0.8-2.1,1.9-2.7,3.3s-1,3-1,4.7c0,1.7,0.3,3.3,1,4.6c0.6,1.4,1.5,2.4,2.6,3.2c1.1,0.8,2.4,1.2,3.8,1.2c1.5,0,2.8-0.4,4-1.2
			c1.2-0.8,2.1-1.9,2.7-3.3s1-3,1-4.7c0-1.7-0.3-3.3-1-4.6c-0.6-1.4-1.5-2.4-2.6-3.2C377.7,466.8,376.5,466.4,375.1,466.4z"/>
		<path id="XMLID_47_" d="M408.5,486.2c-0.9,0-1.8-0.1-2.9-0.4c-1.1-0.2-1.9-0.5-2.6-0.9l0.5-1.5c0.6,0.3,1.4,0.6,2.3,0.8
			c0.9,0.2,1.8,0.3,2.7,0.3c1.7,0,3-0.3,4-1s1.4-1.6,1.4-2.7c0-0.8-0.2-1.4-0.6-2c-0.4-0.6-1-1.1-1.8-1.5c-0.8-0.5-1.8-1-3.2-1.5
			c-3.7-1.6-5.6-3.6-5.6-6.1c0-0.9,0.3-1.8,0.8-2.5c0.5-0.8,1.3-1.4,2.3-1.8s2.1-0.7,3.4-0.7c0.9,0,1.9,0.1,2.7,0.3
			c0.9,0.2,1.7,0.5,2.3,0.8l-0.7,1.4c-0.7-0.3-1.4-0.6-2-0.8s-1.4-0.3-2.3-0.3c-1.5,0-2.6,0.3-3.5,0.9c-0.8,0.6-1.3,1.5-1.3,2.5
			c0,0.8,0.2,1.4,0.6,2s1,1,1.7,1.5c0.7,0.4,1.8,1,3.3,1.7c1.4,0.6,2.4,1.2,3.2,1.7c0.8,0.5,1.4,1.1,1.8,1.8
			c0.4,0.7,0.6,1.5,0.6,2.5c0,1-0.3,1.9-0.8,2.7c-0.6,0.8-1.4,1.4-2.5,1.9C411.2,486,410,486.2,408.5,486.2z"/>
		<path id="XMLID_49_" d="M459.4,465.2v20.6h-1.9v-20.6H459.4z"/>
		<path id="XMLID_51_" d="M482.5,468.9v17h-1.9v-20.6h1.2l10.8,14.9l1,1.8v-16.7h1.9v20.6h-1.2l-11.4-16.1L482.5,468.9z"/>
		<path id="XMLID_53_" d="M514.3,465.4l1.8-0.3l7,18.3l6.7-18.2h1.8l-7.5,20.6h-2L514.3,465.4z"/>
		<path id="XMLID_55_" d="M552.1,465.2v20.6h-1.9v-20.6H552.1z"/>
		<path id="XMLID_57_" d="M577.6,486.2c-0.9,0-1.8-0.1-2.9-0.4s-1.9-0.5-2.6-0.9l0.5-1.5c0.6,0.3,1.4,0.6,2.3,0.8
			c0.9,0.2,1.8,0.3,2.7,0.3c1.7,0,3-0.3,4-1c0.9-0.7,1.4-1.6,1.4-2.7c0-0.8-0.2-1.4-0.6-2c-0.4-0.6-1-1.1-1.8-1.5
			c-0.8-0.5-1.8-1-3.2-1.5c-3.7-1.6-5.6-3.6-5.6-6.1c0-0.9,0.3-1.8,0.8-2.5c0.5-0.8,1.3-1.4,2.3-1.8s2.1-0.7,3.4-0.7
			c0.9,0,1.9,0.1,2.7,0.3s1.7,0.5,2.3,0.8l-0.7,1.4c-0.7-0.3-1.4-0.6-2-0.8c-0.6-0.2-1.4-0.3-2.3-0.3c-1.5,0-2.6,0.3-3.5,0.9
			c-0.8,0.6-1.3,1.5-1.3,2.5c0,0.8,0.2,1.4,0.6,2s1,1,1.7,1.5c0.7,0.4,1.8,1,3.3,1.7c1.4,0.6,2.4,1.2,3.2,1.7
			c0.8,0.5,1.4,1.1,1.8,1.8c0.4,0.7,0.6,1.5,0.6,2.5c0,1-0.3,1.9-0.8,2.7c-0.6,0.8-1.4,1.4-2.5,1.9S579,486.2,577.6,486.2z"/>
		<path id="XMLID_59_" d="M606,465.2v20.6h-1.9v-20.6H606z"/>
		<path id="XMLID_61_" d="M640.7,480.1c0,2-0.7,3.5-2.1,4.4c-1.4,0.9-3.3,1.3-5.6,1.3h-5.8v-20.6h5c2.3,0,4.2,0.4,5.5,1.2
			c1.3,0.8,2,2.2,2,4.1c0,1-0.3,1.8-0.8,2.5c-0.6,0.7-1.3,1.3-2.2,1.7c1.3,0.4,2.4,1,3.1,1.9C640.3,477.6,640.7,478.7,640.7,480.1z
			 M637.7,470.6c0-1.5-0.5-2.5-1.4-3c-0.9-0.5-2.3-0.8-4.1-0.8H629v7.5h2.8C635.7,474.3,637.7,473.1,637.7,470.6z M638.8,480.2
			c0-1.5-0.5-2.6-1.4-3.2c-1-0.7-2.3-1-4-1H629v8.3h4c1.8,0,3.2-0.3,4.3-0.9C638.3,482.7,638.8,481.7,638.8,480.2z"/>
		<path id="XMLID_65_" d="M662,484.3h9.8l0.2,1.5h-11.9v-20.6h1.9V484.3z"/>
		<path id="XMLID_67_" d="M702.1,484.3l0.2,1.5h-11.7v-20.6h11.6l0.2,1.4h-9.9v8h7.3l0.2,1.4h-7.4v8.4H702.1z"/>
		<path id="XMLID_69_" d="M725.6,486.2c-0.9,0-1.8-0.1-2.9-0.4s-1.9-0.5-2.6-0.9l0.5-1.5c0.6,0.3,1.4,0.6,2.3,0.8
			c0.9,0.2,1.8,0.3,2.7,0.3c1.7,0,3-0.3,4-1c0.9-0.7,1.4-1.6,1.4-2.7c0-0.8-0.2-1.4-0.6-2c-0.4-0.6-1-1.1-1.8-1.5
			c-0.8-0.5-1.8-1-3.2-1.5c-3.7-1.6-5.6-3.6-5.6-6.1c0-0.9,0.3-1.8,0.8-2.5c0.5-0.8,1.3-1.4,2.3-1.8s2.1-0.7,3.4-0.7
			c0.9,0,1.9,0.1,2.7,0.3s1.7,0.5,2.3,0.8l-0.7,1.4c-0.7-0.3-1.4-0.6-2-0.8c-0.6-0.2-1.4-0.3-2.3-0.3c-1.5,0-2.6,0.3-3.5,0.9
			c-0.8,0.6-1.3,1.5-1.3,2.5c0,0.8,0.2,1.4,0.6,2s1,1,1.7,1.5c0.7,0.4,1.8,1,3.3,1.7c1.4,0.6,2.4,1.2,3.2,1.7
			c0.8,0.5,1.4,1.1,1.8,1.8c0.4,0.7,0.6,1.5,0.6,2.5c0,1-0.3,1.9-0.8,2.7c-0.6,0.8-1.4,1.4-2.5,1.9S727,486.2,725.6,486.2z"/>
	</g>
</g>
<g id="title">
	<defs>
		<filter id="Adobe_OpacityMaskFilter" filterUnits="userSpaceOnUse" x="178.3" y="37.4" width="536" height="186.6">
			<feFlood  style="flood-color:white;flood-opacity:1" result="back"/>
			<feBlend  in="SourceGraphic" in2="back" mode="normal"/>
		</filter>
	</defs>
	<mask maskUnits="userSpaceOnUse" x="178.3" y="37.4" width="536" height="186.6" id="XMLID_97_">
		<g id="XMLID_27_" class="st0">
			<path id="XMLID_80_" d="M473.4,180l-19.7-7.1c-0.1-0.4-0.3-0.8-0.5-1.2c0.5-0.1,0.9-0.5,1.2-0.9c2.1-0.7,2.4-3.6,0.9-4.6
				c0.1-0.7,0.2-1.3,0.3-2c1.2,0,2.5-0.8,2.5-2.2c0.1-2.9,0.1-5.7,0.1-8.6c0-1.1-0.6-1.7-1.4-2c-0.2-1-0.4-1.9-0.7-2.9
				c-0.2-0.6-0.6-1-1.1-1.3c-0.1-0.9-0.1-1.7-0.2-2.6c1.1-0.3,2.2-1.4,1.7-2.7c-0.1-0.4,0.3-1.3,0.3-1.7c0-0.7,0-1.3-0.3-1.9
				c-0.1-0.3-0.3-0.5-0.5-0.7c0.4-0.6,0.4-1.4,0-2.2c-0.9-1.7-1.8-3.3-2.6-5c-1-1.9-4.4-1.1-4.3,1.2c0,0.1,0,0.2,0,0.4
				c-1.1,0.4-2,1.4-1.5,2.9c0.4,1.3,0.8,2.6,1.2,3.9c-0.6,0.4-1,1.1-1,1.8c0,0.1,0,0.2,0,0.4c-0.7,2-1,4-0.9,6.2
				c0,0.7,0.3,1.3,0.8,1.7c0,0.3,0,0.5,0,0.8c-0.1,0.2-0.1,0.4-0.1,0.6c0,0.6,0,1.3,0,1.9c0,4.8,0.5,9.5,0.7,14.3
				c-2.9,0.3-5.9,0.6-8.8,0.9l-3.4-26.5l-25.9,30.5L405,229h74.2L473.4,180z"/>
			<polygon id="XMLID_79_" points="578,168 624.9,168 624.9,231 582.5,229 			"/>
			<path id="XMLID_78_" d="M237.8,187.2c-3.7-0.2-11.3-1.7-13.9,1.7c-2.4,3.1-1.1,9.4-0.2,13.2c-0.3,0.1-0.5,0.1-0.8,0.2
				c-2.6-2-7.4-1.3-10-0.3c-0.7,0.3-1.2,0.7-1.5,1.3l-2.3-0.7c0,0-4.7,24.6-4.7,25.6c0,0.7,6.4,0.4,10.2,0.2
				c1.5,2.2,5.3-0.2,4.1-2.9c0-0.1,0-0.1-0.1-0.2c0.1-0.1,0.3-0.3,0.4-0.4c1.1-1.5,2-3.1,2.8-4.7c0.3-0.2,0.6-0.5,0.9-0.9
				c0.8-1.3,1.5-2.7,2.1-4.2c1.7-0.5,3.4-1.3,4.9-2.4c1.7-1.1,1.6-4-0.2-4.7c0-0.1,0-0.3,0-0.4c-0.1-1-0.2-2-0.3-3.1
				c0.1-0.6,0.1-1.3-0.2-1.8c-0.1-0.9-0.2-1.8-0.3-2.7c-0.1-0.5-0.3-0.9-0.5-1.3c-0.5-2.4-0.8-5.4,0.4-6.5c0.6-0.5,4.1,0.1,4.8,0.1
				c1.6,0,3.2,0,4.8-0.1C240.9,191.9,240.9,187.4,237.8,187.2z"/>
		</g>
	</mask>
	<g id="XMLID_1926_" class="st1">
		<path id="XMLID_71_" d="M351.1,38.7c3.3,0.9,5.9,2.8,8,5.6c2.1,2.7,3.1,5.7,3.1,9.2v155.3c0,4.2-1.5,7.8-4.4,10.7
			c-3,3-6.6,4.5-10.9,4.5c-4.2,0-7.8-1.5-10.9-4.5c-2.9-2.9-4.4-6.5-4.4-10.7V108.2l-48.2,79.6v0.1l-0.1,0.1l-0.1,0.1l-0.1,0.1
			c-0.3,0.4-0.4,0.7-0.5,0.9l-0.4,0.5c-0.3,0.3-0.6,0.6-0.6,0.6c-0.1,0.1-0.3,0.3-0.5,0.5c-0.3,0.3-0.4,0.4-0.5,0.5
			c-0.2,0.2-0.4,0.4-0.8,0.6l-0.4,0.4c-0.3,0.2-0.6,0.3-0.9,0.5c0,0.1,0,0.1-0.1,0.1l-0.1,0.1h-0.1c-0.2,0.2-0.5,0.3-0.9,0.5
			c-0.3,0.2-0.5,0.3-0.4,0.3c-0.1,0-0.3,0.1-0.8,0.3c-2,0.9-4.1,1.3-6.2,1.2h-0.3c0.2,0,0,0-0.5-0.1c-1.1-0.1-2.2-0.3-3.4-0.6
			c-0.4-0.1-0.6-0.1-0.5-0.1c0.2,0.1,0,0-0.5-0.1c-0.4-0.2-0.7-0.3-0.9-0.4c0.1,0,0-0.1-0.3-0.3c-0.4-0.2-0.8-0.3-1-0.5h-0.1
			l-0.1-0.1L262,193c-0.3-0.2-0.6-0.4-0.9-0.6c0,0.1-0.1,0-0.4-0.3c-0.3-0.3-0.6-0.5-0.8-0.6c-0.1-0.1-0.3-0.3-0.5-0.5
			c-0.3-0.3-0.4-0.4-0.5-0.5c-0.1-0.2-0.3-0.4-0.6-0.6c-0.2-0.3-0.3-0.4-0.3-0.5c-0.2-0.2-0.4-0.5-0.6-0.9l-0.1-0.1
			c0-0.1,0-0.1-0.1-0.1V188c0-0.1,0-0.1-0.1-0.1l-48.1-79.6v100.5c0,4.2-1.5,7.8-4.5,10.7c-3,3-6.6,4.5-10.9,4.5
			c-4.2,0-7.8-1.5-10.7-4.5c-3-2.9-4.5-6.5-4.5-10.7V53.4c0-3.4,1-6.5,3.1-9.2c2.1-2.8,4.8-4.6,8.1-5.6c3.3-0.9,6.5-0.7,9.7,0.5
			c3.2,1.3,5.7,3.4,7.5,6.3l63.6,105.1l63.6-105.1c1.7-2.9,4.2-5,7.4-6.3c3.2-1.2,4.8-1.8,4.8-1.8S347.7,37.8,351.1,38.7z"/>
		<path id="XMLID_73_" d="M420.8,224c-4.1,0-7.7-1.5-10.7-4.4c-3-3-4.5-6.6-4.5-10.9V54.1c0-4.2,1.5-7.8,4.5-10.9
			c2.9-2.9,6.5-4.4,10.7-4.4h39.2c25.5,0,47.3,9,65.4,27c18,18.1,27,39.8,27,65.3c0,25.5-9,47.3-27,65.3
			c-18.1,18.1-39.9,27.1-65.4,27.1L421,224H420.8z M436.1,193.3l23.7-0.4c17.1,0,31.7-6,43.8-18.1c12.1-12.1,18.1-26.6,18.1-43.7
			c0-17-6-31.5-18.1-43.6c-12.1-12.1-26.6-18.2-43.7-18.2h-23.8V193.3z"/>
		<path id="XMLID_76_" d="M699,193.4c4.2,0,7.8,1.5,10.7,4.5c3,3,4.5,6.6,4.5,10.9c0,4.2-1.5,7.8-4.5,10.7c-2.9,3-6.5,4.5-10.7,4.5
			h-93.6c-4.2,0-7.8-1.5-10.7-4.5c-3-2.9-4.5-6.5-4.5-10.7v-155c0-4.3,1.5-7.9,4.5-10.9c2.9-3,6.5-4.5,10.7-4.5h0.1l93.4,0.3
			c4.2,0,7.8,1.5,10.9,4.5c2.9,3,4.4,6.6,4.4,10.9c0,4.2-1.5,7.8-4.5,10.7c-2.9,3-6.5,4.5-10.7,4.5h-0.1l-78.1-0.3V116h56.3
			c4.2,0,7.8,1.5,10.9,4.4c3,3,4.5,6.6,4.5,10.9c0,4.2-1.5,7.8-4.5,10.9c-3,2.9-6.6,4.4-10.9,4.4h-56.3v46.9H699z"/>
	</g>
</g>
<g id="city">
	<g id="XMLID_949_">
		<g id="XMLID_2481_">
			<path id="XMLID_3073_" d="M446,335.4c-6.5,0-13.2-0.1-19.9-0.2C373.4,334,321,328,270.2,317.5c-15.7-3.3-31.5-7-46.8-11.1
				c-35.3-9.5-69.8-21.3-102.4-35c-8.6-3.6-17-7.3-25.2-11.1c-7.4-3.5-14.7-7-21.7-10.6c-33.7-17.1-52.2-30.3-52.3-30.4l2.3-3.2
				c0.2,0.1,18.4,13.1,51.8,30.1c6.9,3.5,14.2,7,21.6,10.5c8.1,3.8,16.5,7.5,24.9,11l0.1,0c32.6,13.7,66.8,25.4,102,34.8
				c15.3,4.1,30.9,7.8,46.6,11.1c50.6,10.5,102.7,16.4,155.1,17.6c6.7,0.1,13.4,0.2,19.8,0.2c18.3,0,36.7-0.6,54.6-1.7
				c81.2-5.1,160-21.4,234.2-48.4c18.3-6.7,36.2-14,53.3-21.7c51.1-23.2,79.5-43.3,79.7-43.5l2.3,3.2c-0.3,0.2-28.9,20.6-80.4,43.9
				c-17.2,7.8-35.3,15.2-53.6,21.9c-74.5,27.2-153.7,43.6-235.3,48.7C482.8,334.8,464.3,335.4,446,335.4z"/>
		</g>
		<g id="XMLID_2479_">
			<path id="XMLID_2480_" d="M438,335c-1.1,0-2-0.9-2-2V142.8l-24.8,30.8l-12.8,158c-0.1,1.1-1.1,1.9-2.1,1.8
				c-1.1-0.1-1.9-1-1.8-2.1l12.9-158.6c0-0.4,0.2-0.8,0.4-1.1l28.7-35.6c0.5-0.7,1.4-0.9,2.2-0.6c0.8,0.3,1.3,1,1.3,1.9V333
				C440,334.1,439.1,335,438,335z"/>
		</g>
		<g id="XMLID_2477_">
			<path id="XMLID_2478_" d="M448,335c-1.1,0-2-0.9-2-2V124.5c0-0.9,0.9-1.7,1.7-1.9c0.8-0.2,1.9,0.1,2.4,0.9l26.2,41.8
				c0.2,0.3,0.3,0.6,0.3,0.9l14.9,166.1c0.1,1.1-0.7,2-1.8,2.1c-1.1,0.1-2-0.7-2.1-1.8l-15-165.6L450,131.4V333
				C450,334.1,449.1,335,448,335z"/>
		</g>
		<g id="XMLID_2475_">
			<path id="XMLID_2476_" d="M428.1,186h-10.5c-1.1,0-2-0.9-2-2s0.9-2,2-2h10.5c1.1,0,2,0.9,2,2S429.2,186,428.1,186z"/>
		</g>
		<g id="XMLID_2473_">
			<path id="XMLID_2474_" d="M447.9,328h-9.2c-1.1,0-2-0.9-2-2s0.9-2,2-2h9.2c1.1,0,2,0.9,2,2S448.9,328,447.9,328z"/>
		</g>
		<g id="XMLID_2471_">
			<path id="XMLID_2472_" d="M447.9,317h-9.2c-1.1,0-2-0.9-2-2s0.9-2,2-2h9.2c1.1,0,2,0.9,2,2S448.9,317,447.9,317z"/>
		</g>
		<g id="XMLID_2469_">
			<path id="XMLID_2470_" d="M447.9,307h-9.2c-1.1,0-2-0.9-2-2s0.9-2,2-2h9.2c1.1,0,2,0.9,2,2S448.9,307,447.9,307z"/>
		</g>
		<g id="XMLID_2467_">
			<path id="XMLID_2468_" d="M447.9,296h-9.2c-1.1,0-2-0.9-2-2s0.9-2,2-2h9.2c1.1,0,2,0.9,2,2S448.9,296,447.9,296z"/>
		</g>
		<g id="XMLID_2465_">
			<path id="XMLID_2466_" d="M447.9,286h-9.2c-1.1,0-2-0.9-2-2s0.9-2,2-2h9.2c1.1,0,2,0.9,2,2S448.9,286,447.9,286z"/>
		</g>
		<g id="XMLID_2463_">
			<path id="XMLID_2464_" d="M447.9,275h-9.2c-1.1,0-2-0.9-2-2s0.9-2,2-2h9.2c1.1,0,2,0.9,2,2S448.9,275,447.9,275z"/>
		</g>
		<g id="XMLID_2461_">
			<path id="XMLID_2462_" d="M447.9,265h-9.2c-1.1,0-2-0.9-2-2s0.9-2,2-2h9.2c1.1,0,2,0.9,2,2S448.9,265,447.9,265z"/>
		</g>
		<g id="XMLID_2459_">
			<path id="XMLID_2460_" d="M447.9,254h-9.2c-1.1,0-2-0.9-2-2s0.9-2,2-2h9.2c1.1,0,2,0.9,2,2S448.9,254,447.9,254z"/>
		</g>
		<g id="XMLID_2457_">
			<path id="XMLID_2458_" d="M447.9,244h-9.2c-1.1,0-2-0.9-2-2s0.9-2,2-2h9.2c1.1,0,2,0.9,2,2S448.9,244,447.9,244z"/>
		</g>
		<g id="XMLID_2455_">
			<path id="XMLID_2456_" d="M447.9,233h-9.2c-1.1,0-2-0.9-2-2s0.9-2,2-2h9.2c1.1,0,2,0.9,2,2S448.9,233,447.9,233z"/>
		</g>
		<g id="XMLID_2453_">
			<path id="XMLID_2454_" d="M447.9,223h-9.2c-1.1,0-2-0.9-2-2s0.9-2,2-2h9.2c1.1,0,2,0.9,2,2S448.9,223,447.9,223z"/>
		</g>
		<g id="XMLID_2451_">
			<path id="XMLID_2452_" d="M447.9,212h-9.2c-1.1,0-2-0.9-2-2s0.9-2,2-2h9.2c1.1,0,2,0.9,2,2S448.9,212,447.9,212z"/>
		</g>
		<g id="XMLID_2449_">
			<path id="XMLID_2450_" d="M447.9,201h-9.2c-1.1,0-2-0.4-2-1.5s0.9-1.5,2-1.5h9.2c1.1,0,2,0.4,2,1.5S448.9,201,447.9,201z"/>
		</g>
		<g id="XMLID_2447_">
			<path id="XMLID_2448_" d="M447.9,191h-9.2c-1.1,0-2-0.9-2-2s0.9-2,2-2h9.2c1.1,0,2,0.9,2,2S448.9,191,447.9,191z"/>
		</g>
		<g id="XMLID_2445_">
			<path id="XMLID_2446_" d="M447.9,180h-9.2c-1.1,0-2-0.4-2-1.5s0.9-1.5,2-1.5h9.2c1.1,0,2,0.4,2,1.5S448.9,180,447.9,180z"/>
		</g>
		<g id="XMLID_2443_">
			<path id="XMLID_2444_" d="M447.9,170h-9.2c-1.1,0-2-0.9-2-2s0.9-2,2-2h9.2c1.1,0,2,0.9,2,2S448.9,170,447.9,170z"/>
		</g>
		<g id="XMLID_2441_">
			<path id="XMLID_2442_" d="M510,332.4c-1.1,0-2-0.9-2-2V191.6c0-1.1,1.3-1.6,2.3-1.6h51.3c1.1,0,1.4,0.5,1.4,1.6v133.5
				c0,1.1-0.9,2-2,2s-2-0.9-2-2V194h-47v136.4C512,331.5,511.1,332.4,510,332.4z"/>
		</g>
		<g id="XMLID_2439_">
			<path id="XMLID_2440_" d="M561,327.1c-1.1,0-2-0.9-2-2V168c0-1.1,1.6-2,2.6-2h64.5c1.1,0,1.9,0.9,1.9,2v145.4c0,1.1-0.9,2-2,2
				s-2-0.9-2-2V170h-61v155.1C563,326.2,562.1,327.1,561,327.1z"/>
		</g>
		<g id="XMLID_2437_">
			<path id="XMLID_2438_" d="M550.5,211h-28.9c-0.7,0-1.3-0.8-1.3-1.5s0.6-1.5,1.3-1.5h28.9c0.7,0,1.3,0.8,1.3,1.5
				S551.2,211,550.5,211z"/>
		</g>
		<g id="XMLID_2428_">
			<g id="XMLID_2435_">
				<path id="XMLID_2436_" d="M576.8,182h-5.3c-0.7,0-1.3-0.8-1.3-1.5s0.6-1.5,1.3-1.5h5.3c0.7,0,1.3,0.8,1.3,1.5
					S577.5,182,576.8,182z"/>
			</g>
			<g id="XMLID_2433_">
				<path id="XMLID_2434_" d="M589.9,182h-5.3c-0.7,0-1.3-0.8-1.3-1.5s0.6-1.5,1.3-1.5h5.3c0.7,0,1.3,0.8,1.3,1.5
					S590.7,182,589.9,182z"/>
			</g>
			<g id="XMLID_2431_">
				<path id="XMLID_2432_" d="M603.1,182h-5.3c-0.7,0-1.3-0.8-1.3-1.5s0.6-1.5,1.3-1.5h5.3c0.7,0,1.3,0.8,1.3,1.5
					S603.8,182,603.1,182z"/>
			</g>
			<g id="XMLID_2429_">
				<path id="XMLID_2430_" d="M616.2,182H611c-0.7,0-1.3-0.8-1.3-1.5s0.6-1.5,1.3-1.5h5.3c0.7,0,1.3,0.8,1.3,1.5S617,182,616.2,182z
					"/>
			</g>
		</g>
		<g id="XMLID_2419_">
			<g id="XMLID_2426_">
				<path id="XMLID_2427_" d="M576.8,190h-5.3c-0.7,0-1.3-0.8-1.3-1.5s0.6-1.5,1.3-1.5h5.3c0.7,0,1.3,0.8,1.3,1.5
					S577.5,190,576.8,190z"/>
			</g>
			<g id="XMLID_2424_">
				<path id="XMLID_2425_" d="M589.9,190h-5.3c-0.7,0-1.3-0.8-1.3-1.5s0.6-1.5,1.3-1.5h5.3c0.7,0,1.3,0.8,1.3,1.5
					S590.7,190,589.9,190z"/>
			</g>
			<g id="XMLID_2422_">
				<path id="XMLID_2423_" d="M603.1,190h-5.3c-0.7,0-1.3-0.8-1.3-1.5s0.6-1.5,1.3-1.5h5.3c0.7,0,1.3,0.8,1.3,1.5
					S603.8,190,603.1,190z"/>
			</g>
			<g id="XMLID_2420_">
				<path id="XMLID_2421_" d="M616.2,190H611c-0.7,0-1.3-0.8-1.3-1.5s0.6-1.5,1.3-1.5h5.3c0.7,0,1.3,0.8,1.3,1.5S617,190,616.2,190z
					"/>
			</g>
		</g>
		<g id="XMLID_2410_">
			<g id="XMLID_2417_">
				<path id="XMLID_2418_" d="M576.8,204h-5.3c-0.7,0-1.3-0.8-1.3-1.5s0.6-1.5,1.3-1.5h5.3c0.7,0,1.3,0.8,1.3,1.5
					S577.5,204,576.8,204z"/>
			</g>
			<g id="XMLID_2415_">
				<path id="XMLID_2416_" d="M589.9,204h-5.3c-0.7,0-1.3-0.8-1.3-1.5s0.6-1.5,1.3-1.5h5.3c0.7,0,1.3,0.8,1.3,1.5
					S590.7,204,589.9,204z"/>
			</g>
			<g id="XMLID_2413_">
				<path id="XMLID_2414_" d="M603.1,204h-5.3c-0.7,0-1.3-0.8-1.3-1.5s0.6-1.5,1.3-1.5h5.3c0.7,0,1.3,0.8,1.3,1.5
					S603.8,204,603.1,204z"/>
			</g>
			<g id="XMLID_2411_">
				<path id="XMLID_2412_" d="M616.2,204H611c-0.7,0-1.3-0.8-1.3-1.5s0.6-1.5,1.3-1.5h5.3c0.7,0,1.3,0.8,1.3,1.5S617,204,616.2,204z
					"/>
			</g>
		</g>
		<g id="XMLID_2401_">
			<g id="XMLID_2408_">
				<path id="XMLID_2409_" d="M576.8,212h-5.3c-0.7,0-1.3-0.8-1.3-1.5s0.6-1.5,1.3-1.5h5.3c0.7,0,1.3,0.8,1.3,1.5
					S577.5,212,576.8,212z"/>
			</g>
			<g id="XMLID_2406_">
				<path id="XMLID_2407_" d="M589.9,212h-5.3c-0.7,0-1.3-0.8-1.3-1.5s0.6-1.5,1.3-1.5h5.3c0.7,0,1.3,0.8,1.3,1.5
					S590.7,212,589.9,212z"/>
			</g>
			<g id="XMLID_2404_">
				<path id="XMLID_2405_" d="M603.1,212h-5.3c-0.7,0-1.3-0.8-1.3-1.5s0.6-1.5,1.3-1.5h5.3c0.7,0,1.3,0.8,1.3,1.5
					S603.8,212,603.1,212z"/>
			</g>
			<g id="XMLID_2402_">
				<path id="XMLID_2403_" d="M616.2,212H611c-0.7,0-1.3-0.8-1.3-1.5s0.6-1.5,1.3-1.5h5.3c0.7,0,1.3,0.8,1.3,1.5S617,212,616.2,212z
					"/>
			</g>
		</g>
		<g id="XMLID_2392_">
			<g id="XMLID_2399_">
				<path id="XMLID_2400_" d="M576.8,228h-5.3c-0.7,0-1.3-0.8-1.3-1.5s0.6-1.5,1.3-1.5h5.3c0.7,0,1.3,0.8,1.3,1.5
					S577.5,228,576.8,228z"/>
			</g>
			<g id="XMLID_2397_">
				<path id="XMLID_2398_" d="M589.9,228h-5.3c-0.7,0-1.3-0.8-1.3-1.5s0.6-1.5,1.3-1.5h5.3c0.7,0,1.3,0.8,1.3,1.5
					S590.7,228,589.9,228z"/>
			</g>
			<g id="XMLID_2395_">
				<path id="XMLID_2396_" d="M603.1,228h-5.3c-0.7,0-1.3-0.8-1.3-1.5s0.6-1.5,1.3-1.5h5.3c0.7,0,1.3,0.8,1.3,1.5
					S603.8,228,603.1,228z"/>
			</g>
			<g id="XMLID_2393_">
				<path id="XMLID_2394_" d="M616.2,228H611c-0.7,0-1.3-0.8-1.3-1.5s0.6-1.5,1.3-1.5h5.3c0.7,0,1.3,0.8,1.3,1.5S617,228,616.2,228z
					"/>
			</g>
		</g>
		<g id="XMLID_2383_">
			<g id="XMLID_2390_">
				<path id="XMLID_2391_" d="M576.8,236h-5.3c-0.7,0-1.3-0.8-1.3-1.5s0.6-1.5,1.3-1.5h5.3c0.7,0,1.3,0.8,1.3,1.5
					S577.5,236,576.8,236z"/>
			</g>
			<g id="XMLID_2388_">
				<path id="XMLID_2389_" d="M589.9,236h-5.3c-0.7,0-1.3-0.8-1.3-1.5s0.6-1.5,1.3-1.5h5.3c0.7,0,1.3,0.8,1.3,1.5
					S590.7,236,589.9,236z"/>
			</g>
			<g id="XMLID_2386_">
				<path id="XMLID_2387_" d="M603.1,236h-5.3c-0.7,0-1.3-0.8-1.3-1.5s0.6-1.5,1.3-1.5h5.3c0.7,0,1.3,0.8,1.3,1.5
					S603.8,236,603.1,236z"/>
			</g>
			<g id="XMLID_2384_">
				<path id="XMLID_2385_" d="M616.2,236H611c-0.7,0-1.3-0.8-1.3-1.5s0.6-1.5,1.3-1.5h5.3c0.7,0,1.3,0.8,1.3,1.5S617,236,616.2,236z
					"/>
			</g>
		</g>
		<g id="XMLID_2374_">
			<g id="XMLID_2381_">
				<path id="XMLID_2382_" d="M576.8,250h-5.3c-0.7,0-1.3-0.3-1.3-1s0.6-1,1.3-1h5.3c0.7,0,1.3,0.3,1.3,1S577.5,250,576.8,250z"/>
			</g>
			<g id="XMLID_2379_">
				<path id="XMLID_2380_" d="M589.9,250h-5.3c-0.7,0-1.3-0.3-1.3-1s0.6-1,1.3-1h5.3c0.7,0,1.3,0.3,1.3,1S590.7,250,589.9,250z"/>
			</g>
			<g id="XMLID_2377_">
				<path id="XMLID_2378_" d="M603.1,250h-5.3c-0.7,0-1.3-0.3-1.3-1s0.6-1,1.3-1h5.3c0.7,0,1.3,0.3,1.3,1S603.8,250,603.1,250z"/>
			</g>
			<g id="XMLID_2375_">
				<path id="XMLID_2376_" d="M616.2,250H611c-0.7,0-1.3-0.3-1.3-1s0.6-1,1.3-1h5.3c0.7,0,1.3,0.3,1.3,1S617,250,616.2,250z"/>
			</g>
		</g>
		<g id="XMLID_2365_">
			<g id="XMLID_2372_">
				<path id="XMLID_2373_" d="M576.8,259h-5.3c-0.7,0-1.3-0.3-1.3-1s0.6-1,1.3-1h5.3c0.7,0,1.3,0.3,1.3,1S577.5,259,576.8,259z"/>
			</g>
			<g id="XMLID_2370_">
				<path id="XMLID_2371_" d="M589.9,259h-5.3c-0.7,0-1.3-0.3-1.3-1s0.6-1,1.3-1h5.3c0.7,0,1.3,0.3,1.3,1S590.7,259,589.9,259z"/>
			</g>
			<g id="XMLID_2368_">
				<path id="XMLID_2369_" d="M603.1,259h-5.3c-0.7,0-1.3-0.3-1.3-1s0.6-1,1.3-1h5.3c0.7,0,1.3,0.3,1.3,1S603.8,259,603.1,259z"/>
			</g>
			<g id="XMLID_2366_">
				<path id="XMLID_2367_" d="M616.2,259H611c-0.7,0-1.3-0.3-1.3-1s0.6-1,1.3-1h5.3c0.7,0,1.3,0.3,1.3,1S617,259,616.2,259z"/>
			</g>
		</g>
		<g id="XMLID_2356_">
			<g id="XMLID_2363_">
				<path id="XMLID_2364_" d="M576.8,274h-5.3c-0.7,0-1.3-0.8-1.3-1.5s0.6-1.5,1.3-1.5h5.3c0.7,0,1.3,0.8,1.3,1.5
					S577.5,274,576.8,274z"/>
			</g>
			<g id="XMLID_2361_">
				<path id="XMLID_2362_" d="M589.9,274h-5.3c-0.7,0-1.3-0.8-1.3-1.5s0.6-1.5,1.3-1.5h5.3c0.7,0,1.3,0.8,1.3,1.5
					S590.7,274,589.9,274z"/>
			</g>
			<g id="XMLID_2359_">
				<path id="XMLID_2360_" d="M603.1,274h-5.3c-0.7,0-1.3-0.8-1.3-1.5s0.6-1.5,1.3-1.5h5.3c0.7,0,1.3,0.8,1.3,1.5
					S603.8,274,603.1,274z"/>
			</g>
			<g id="XMLID_2357_">
				<path id="XMLID_2358_" d="M616.2,274H611c-0.7,0-1.3-0.8-1.3-1.5s0.6-1.5,1.3-1.5h5.3c0.7,0,1.3,0.8,1.3,1.5S617,274,616.2,274z
					"/>
			</g>
		</g>
		<g id="XMLID_2347_">
			<g id="XMLID_2354_">
				<path id="XMLID_2355_" d="M576.8,282h-5.3c-0.7,0-1.3-0.8-1.3-1.5s0.6-1.5,1.3-1.5h5.3c0.7,0,1.3,0.8,1.3,1.5
					S577.5,282,576.8,282z"/>
			</g>
			<g id="XMLID_2352_">
				<path id="XMLID_2353_" d="M589.9,282h-5.3c-0.7,0-1.3-0.8-1.3-1.5s0.6-1.5,1.3-1.5h5.3c0.7,0,1.3,0.8,1.3,1.5
					S590.7,282,589.9,282z"/>
			</g>
			<g id="XMLID_2350_">
				<path id="XMLID_2351_" d="M603.1,282h-5.3c-0.7,0-1.3-0.8-1.3-1.5s0.6-1.5,1.3-1.5h5.3c0.7,0,1.3,0.8,1.3,1.5
					S603.8,282,603.1,282z"/>
			</g>
			<g id="XMLID_2348_">
				<path id="XMLID_2349_" d="M616.2,282H611c-0.7,0-1.3-0.8-1.3-1.5s0.6-1.5,1.3-1.5h5.3c0.7,0,1.3,0.8,1.3,1.5S617,282,616.2,282z
					"/>
			</g>
		</g>
		<g id="XMLID_2338_">
			<g id="XMLID_2345_">
				<path id="XMLID_2346_" d="M576.8,298h-5.3c-0.7,0-1.3-0.8-1.3-1.5s0.6-1.5,1.3-1.5h5.3c0.7,0,1.3,0.8,1.3,1.5
					S577.5,298,576.8,298z"/>
			</g>
			<g id="XMLID_2343_">
				<path id="XMLID_2344_" d="M589.9,298h-5.3c-0.7,0-1.3-0.8-1.3-1.5s0.6-1.5,1.3-1.5h5.3c0.7,0,1.3,0.8,1.3,1.5
					S590.7,298,589.9,298z"/>
			</g>
			<g id="XMLID_2341_">
				<path id="XMLID_2342_" d="M603.1,298h-5.3c-0.7,0-1.3-0.8-1.3-1.5s0.6-1.5,1.3-1.5h5.3c0.7,0,1.3,0.8,1.3,1.5
					S603.8,298,603.1,298z"/>
			</g>
			<g id="XMLID_2339_">
				<path id="XMLID_2340_" d="M616.2,298H611c-0.7,0-1.3-0.8-1.3-1.5s0.6-1.5,1.3-1.5h5.3c0.7,0,1.3,0.8,1.3,1.5S617,298,616.2,298z
					"/>
			</g>
		</g>
		<g id="XMLID_2329_">
			<g id="XMLID_2336_">
				<path id="XMLID_2337_" d="M576.8,305h-5.3c-0.7,0-1.3-0.3-1.3-1s0.6-1,1.3-1h5.3c0.7,0,1.3,0.3,1.3,1S577.5,305,576.8,305z"/>
			</g>
			<g id="XMLID_2334_">
				<path id="XMLID_2335_" d="M589.9,305h-5.3c-0.7,0-1.3-0.3-1.3-1s0.6-1,1.3-1h5.3c0.7,0,1.3,0.3,1.3,1S590.7,305,589.9,305z"/>
			</g>
			<g id="XMLID_2332_">
				<path id="XMLID_2333_" d="M603.1,305h-5.3c-0.7,0-1.3-0.3-1.3-1s0.6-1,1.3-1h5.3c0.7,0,1.3,0.3,1.3,1S603.8,305,603.1,305z"/>
			</g>
			<g id="XMLID_2330_">
				<path id="XMLID_2331_" d="M616.2,305H611c-0.7,0-1.3-0.3-1.3-1s0.6-1,1.3-1h5.3c0.7,0,1.3,0.3,1.3,1S617,305,616.2,305z"/>
			</g>
		</g>
		<g id="XMLID_2327_">
			<path id="XMLID_2328_" d="M802,257.4c-1.1,0-2-0.9-2-2V186h-39v35.2c0,1.1-0.9,2-2,2s-2-0.9-2-2v-37.5c0-1.1,0.9-1.7,2-1.7h43.4
				c1.1,0,1.6,0.6,1.6,1.7v71.7C804,256.5,803.1,257.4,802,257.4z"/>
		</g>
		<g id="XMLID_2318_">
			<g id="XMLID_2325_">
				<path id="XMLID_2326_" d="M768.8,195h-3.9c-0.7,0-1.3-0.8-1.3-1.5s0.6-1.5,1.3-1.5h3.9c0.7,0,1.3,0.8,1.3,1.5
					S769.6,195,768.8,195z"/>
			</g>
			<g id="XMLID_2323_">
				<path id="XMLID_2324_" d="M778,195h-2.6c-0.7,0-1.3-0.8-1.3-1.5s0.6-1.5,1.3-1.5h2.6c0.7,0,1.3,0.8,1.3,1.5S778.8,195,778,195z"
					/>
			</g>
			<g id="XMLID_2321_">
				<path id="XMLID_2322_" d="M788.6,195h-3.9c-0.7,0-1.3-0.8-1.3-1.5s0.6-1.5,1.3-1.5h3.9c0.7,0,1.3,0.8,1.3,1.5
					S789.3,195,788.6,195z"/>
			</g>
			<g id="XMLID_2319_">
				<path id="XMLID_2320_" d="M796.4,195h-3.9c-0.7,0-1.3-0.8-1.3-1.5s0.6-1.5,1.3-1.5h3.9c0.7,0,1.3,0.8,1.3,1.5
					S797.2,195,796.4,195z"/>
			</g>
		</g>
		<g id="XMLID_2309_">
			<g id="XMLID_2316_">
				<path id="XMLID_2317_" d="M768.8,201h-3.9c-0.7,0-1.3-0.3-1.3-1s0.6-1,1.3-1h3.9c0.7,0,1.3,0.3,1.3,1S769.6,201,768.8,201z"/>
			</g>
			<g id="XMLID_2314_">
				<path id="XMLID_2315_" d="M778,201h-2.6c-0.7,0-1.3-0.3-1.3-1s0.6-1,1.3-1h2.6c0.7,0,1.3,0.3,1.3,1S778.8,201,778,201z"/>
			</g>
			<g id="XMLID_2312_">
				<path id="XMLID_2313_" d="M788.6,201h-3.9c-0.7,0-1.3-0.3-1.3-1s0.6-1,1.3-1h3.9c0.7,0,1.3,0.3,1.3,1S789.3,201,788.6,201z"/>
			</g>
			<g id="XMLID_2310_">
				<path id="XMLID_2311_" d="M796.4,201h-3.9c-0.7,0-1.3-0.3-1.3-1s0.6-1,1.3-1h3.9c0.7,0,1.3,0.3,1.3,1S797.2,201,796.4,201z"/>
			</g>
		</g>
		<g id="XMLID_2300_">
			<g id="XMLID_2307_">
				<path id="XMLID_2308_" d="M768.8,213h-3.9c-0.7,0-1.3-0.3-1.3-1s0.6-1,1.3-1h3.9c0.7,0,1.3,0.3,1.3,1S769.6,213,768.8,213z"/>
			</g>
			<g id="XMLID_2305_">
				<path id="XMLID_2306_" d="M778,213h-2.6c-0.7,0-1.3-0.3-1.3-1s0.6-1,1.3-1h2.6c0.7,0,1.3,0.3,1.3,1S778.8,213,778,213z"/>
			</g>
			<g id="XMLID_2303_">
				<path id="XMLID_2304_" d="M788.6,213h-3.9c-0.7,0-1.3-0.3-1.3-1s0.6-1,1.3-1h3.9c0.7,0,1.3,0.3,1.3,1S789.3,213,788.6,213z"/>
			</g>
			<g id="XMLID_2301_">
				<path id="XMLID_2302_" d="M796.4,213h-3.9c-0.7,0-1.3-0.3-1.3-1s0.6-1,1.3-1h3.9c0.7,0,1.3,0.3,1.3,1S797.2,213,796.4,213z"/>
			</g>
		</g>
		<g id="XMLID_2291_">
			<g id="XMLID_2298_">
				<path id="XMLID_2299_" d="M768.8,220h-3.9c-0.7,0-1.3-0.8-1.3-1.5s0.6-1.5,1.3-1.5h3.9c0.7,0,1.3,0.8,1.3,1.5
					S769.6,220,768.8,220z"/>
			</g>
			<g id="XMLID_2296_">
				<path id="XMLID_2297_" d="M778,220h-2.6c-0.7,0-1.3-0.8-1.3-1.5s0.6-1.5,1.3-1.5h2.6c0.7,0,1.3,0.8,1.3,1.5S778.8,220,778,220z"
					/>
			</g>
			<g id="XMLID_2294_">
				<path id="XMLID_2295_" d="M788.6,220h-3.9c-0.7,0-1.3-0.8-1.3-1.5s0.6-1.5,1.3-1.5h3.9c0.7,0,1.3,0.8,1.3,1.5
					S789.3,220,788.6,220z"/>
			</g>
			<g id="XMLID_2292_">
				<path id="XMLID_2293_" d="M796.4,220h-3.9c-0.7,0-1.3-0.8-1.3-1.5s0.6-1.5,1.3-1.5h3.9c0.7,0,1.3,0.8,1.3,1.5
					S797.2,220,796.4,220z"/>
			</g>
		</g>
		<g id="XMLID_2289_">
			<path id="XMLID_2290_" d="M796.4,232h-3.9c-0.7,0-1.3-0.8-1.3-1.5s0.6-1.5,1.3-1.5h3.9c0.7,0,1.3,0.8,1.3,1.5
				S797.2,232,796.4,232z"/>
		</g>
		<g id="XMLID_2287_">
			<path id="XMLID_2288_" d="M796.4,238h-3.9c-0.7,0-1.3-0.3-1.3-1s0.6-1,1.3-1h3.9c0.7,0,1.3,0.3,1.3,1S797.2,238,796.4,238z"/>
		</g>
		<g id="XMLID_2285_">
			<path id="XMLID_2286_" d="M796.4,249h-3.9c-0.7,0-1.3-0.8-1.3-1.5c0-0.7,0.6-1.5,1.3-1.5h3.9c0.7,0,1.3,0.8,1.3,1.5
				C797.8,248.2,797.2,249,796.4,249z"/>
		</g>
		<g id="XMLID_2283_">
			<path id="XMLID_2284_" d="M796.4,255h-3.9c-0.7,0-1.3-0.3-1.3-1s0.6-1,1.3-1h3.9c0.7,0,1.3,0.3,1.3,1S797.2,255,796.4,255z"/>
		</g>
		<g id="XMLID_2281_">
			<path id="XMLID_2282_" d="M550.5,229h-28.9c-0.7,0-1.3-0.8-1.3-1.5s0.6-1.5,1.3-1.5h28.9c0.7,0,1.3,0.8,1.3,1.5
				S551.2,229,550.5,229z"/>
		</g>
		<g id="XMLID_2279_">
			<path id="XMLID_2280_" d="M550.5,248h-28.9c-0.7,0-1.3-0.8-1.3-1.5s0.6-1.5,1.3-1.5h28.9c0.7,0,1.3,0.8,1.3,1.5
				S551.2,248,550.5,248z"/>
		</g>
		<g id="XMLID_2277_">
			<path id="XMLID_2278_" d="M550.5,266h-28.9c-0.7,0-1.3-0.8-1.3-1.5s0.6-1.5,1.3-1.5h28.9c0.7,0,1.3,0.8,1.3,1.5
				S551.2,266,550.5,266z"/>
		</g>
		<g id="XMLID_2275_">
			<path id="XMLID_2276_" d="M550.5,284h-28.9c-0.7,0-1.3-0.3-1.3-1s0.6-1,1.3-1h28.9c0.7,0,1.3,0.3,1.3,1S551.2,284,550.5,284z"/>
		</g>
		<g id="XMLID_2273_">
			<path id="XMLID_2274_" d="M550.5,303h-28.9c-0.7,0-1.3-0.8-1.3-1.5s0.6-1.5,1.3-1.5h28.9c0.7,0,1.3,0.8,1.3,1.5
				S551.2,303,550.5,303z"/>
		</g>
		<g id="XMLID_2271_">
			<path id="XMLID_2272_" d="M550.5,321h-28.9c-0.7,0-1.3-0.3-1.3-1s0.6-1,1.3-1h28.9c0.7,0,1.3,0.3,1.3,1S551.2,321,550.5,321z"/>
		</g>
		<g id="XMLID_2269_">
			<path id="XMLID_2270_" d="M669,306.1c-1.1,0-2-0.9-2-2v-21c0-1.1,0.9-2,2-2s2,0.9,2,2v21C671,305.2,670.1,306.1,669,306.1z"/>
		</g>
		<g id="XMLID_2265_">
			<path id="XMLID_2266_" d="M735.4,284h-77.7c-1.1,0-2.7-0.5-2.7-1.6v-60.5c0-1.1,1.6-1.9,2.7-1.9h131.5c1.1,0,1.8,0.8,1.8,1.9
				v39.5c0,0.8-0.4,1.5-1.1,1.8c-18,8.1-36.1,15-53.9,20.9C735.8,284.2,735.6,284,735.4,284z M659,280h76.1
				c17.2-5,33.9-12.1,51.9-19.9V224H659V280z"/>
		</g>
		<g id="XMLID_2263_">
			<path id="XMLID_2264_" d="M774.1,237H668.9c-0.7,0-1.3-0.8-1.3-1.5s0.6-1.5,1.3-1.5h105.2c0.7,0,1.3,0.8,1.3,1.5
				S774.8,237,774.1,237z"/>
		</g>
		<g id="XMLID_2261_">
			<path id="XMLID_2262_" d="M774.1,253H668.9c-0.7,0-1.3-0.8-1.3-1.5s0.6-1.5,1.3-1.5h105.2c0.7,0,1.3,0.8,1.3,1.5
				S774.8,253,774.1,253z"/>
		</g>
		<g id="XMLID_2259_">
			<path id="XMLID_2260_" d="M774.1,269H668.9c-0.7,0-1.3-0.8-1.3-1.5s0.6-1.5,1.3-1.5h105.2c0.7,0,1.3,0.8,1.3,1.5
				S774.8,269,774.1,269z"/>
		</g>
		<g id="XMLID_2255_">
			<path id="XMLID_2256_" d="M121,271.5c-0.3,0-0.5,0-0.7-0.1c-18.8-7.7-33.3-15.1-46.2-21.7c-0.7-0.3-1.1-1-1.1-1.8v-60.2
				c0-1.1,0.8-1.7,1.9-1.7h46c1.1,0,2,0.6,2,1.7v81.9c0,0.7-0.4,1.3-0.9,1.6C121.8,271.4,121.4,271.5,121,271.5z M76,246.7
				c12,6.1,26,12.9,43,19.9V190H76V246.7z"/>
		</g>
		<g id="XMLID_2251_">
			<path id="XMLID_2252_" d="M268.3,317.5c-0.2,0-0.3,0-0.4-0.1c-14.8-3.4-30.7-7.1-45.1-11.1c-0.9-0.2-1.7-1-1.7-1.9V187.7
				c0-1.1,1.5-1.7,2.6-1.7h44.7c1.1,0,1.7,0.6,1.7,1.7v127.9c0,0.6-0.1,1.2-0.6,1.5C269,317.4,268.7,317.5,268.3,317.5z M225,302.9
				c13,3.6,27,7,41,10.1V190h-41V302.9z"/>
		</g>
		<g id="XMLID_2249_">
			<path id="XMLID_2250_" d="M189.1,296.2c-0.1,0-0.3,0-0.4,0c-1.1-0.2-1.7-1.3-1.5-2.4l20.5-92c0.2-0.9,1-1.5,1.9-1.5l0,0l13.3,0
				c1.1,0,2,0.9,2,2c0,1.1-0.9,2-2,2l0,0l-11.7,0L191,294.7C190.8,295.6,190,296.2,189.1,296.2z"/>
		</g>
		<g id="XMLID_2247_">
			<path id="XMLID_2248_" d="M146.7,279.8c-0.9,0-1.7-0.7-1.9-1.6L129.2,204h-7.6c-1.1,0-2-0.9-2-2s0.9-2,2-2h9.2
				c0.9,0,1.7,0.7,1.9,1.7l15.8,75.8c0.2,1.1-0.5,2.1-1.5,2.4C146.9,279.8,146.8,279.8,146.7,279.8z"/>
		</g>
		<g id="XMLID_2245_">
			<path id="XMLID_2246_" class="st2" d="M296.6,178.6"/>
		</g>
		<g id="XMLID_2243_">
			<path id="XMLID_2244_" d="M262.4,248h-9.2c-0.4,0-0.7-0.6-0.7-1s0.3-1,0.7-1h9.2c0.4,0,0.7,0.6,0.7,1S262.7,248,262.4,248z"/>
		</g>
		<g id="XMLID_2241_">
			<path id="XMLID_2242_" d="M262.4,259h-9.2c-0.4,0-0.7-0.1-0.7-0.5s0.3-0.5,0.7-0.5h9.2c0.4,0,0.7,0.1,0.7,0.5
				S262.7,259,262.4,259z"/>
		</g>
		<g id="XMLID_2239_">
			<path id="XMLID_2240_" d="M262.4,236h-9.2c-0.4,0-0.7-0.6-0.7-1s0.3-1,0.7-1h9.2c0.4,0,0.7,0.6,0.7,1S262.7,236,262.4,236z"/>
		</g>
		<g id="XMLID_2237_">
			<path id="XMLID_2238_" d="M262.4,223h-9.2c-0.4,0-0.7-0.6-0.7-1s0.3-1,0.7-1h9.2c0.4,0,0.7,0.6,0.7,1S262.7,223,262.4,223z"/>
		</g>
		<g id="XMLID_2235_">
			<path id="XMLID_2236_" d="M262.4,209h-9.2c-0.4,0-0.7-0.1-0.7-0.5s0.3-0.5,0.7-0.5h9.2c0.4,0,0.7,0.1,0.7,0.5
				S262.7,209,262.4,209z"/>
		</g>
		<g id="XMLID_2233_">
			<path id="XMLID_2234_" d="M262.4,196h-9.2c-0.4,0-0.7-0.1-0.7-0.5s0.3-0.5,0.7-0.5h9.2c0.4,0,0.7,0.1,0.7,0.5
				S262.7,196,262.4,196z"/>
		</g>
		<g id="XMLID_2231_">
			<path id="XMLID_2232_" d="M262.4,271h-9.2c-0.4,0-0.7-0.1-0.7-0.5s0.3-0.5,0.7-0.5h9.2c0.4,0,0.7,0.1,0.7,0.5
				S262.7,271,262.4,271z"/>
		</g>
		<g id="XMLID_2229_">
			<path id="XMLID_2230_" d="M262.4,283h-9.2c-0.4,0-0.7-0.1-0.7-0.5s0.3-0.5,0.7-0.5h9.2c0.4,0,0.7,0.1,0.7,0.5
				S262.7,283,262.4,283z"/>
		</g>
		<g id="XMLID_2227_">
			<path id="XMLID_2228_" d="M262.4,295h-9.2c-0.4,0-0.7-0.1-0.7-0.5s0.3-0.5,0.7-0.5h9.2c0.4,0,0.7,0.1,0.7,0.5
				S262.7,295,262.4,295z"/>
		</g>
		<g id="XMLID_2225_">
			<path id="XMLID_2226_" d="M262.4,307h-9.2c-0.4,0-0.7-0.6-0.7-1s0.3-1,0.7-1h9.2c0.4,0,0.7,0.6,0.7,1S262.7,307,262.4,307z"/>
		</g>
		<g id="XMLID_2223_">
			<path id="XMLID_2224_" d="M231,307.4c-0.4,0-1-0.3-1-0.7V196.2c0-0.4,0.6-0.7,1-0.7s1,0.3,1,0.7v110.5
				C232,307.1,231.4,307.4,231,307.4z"/>
		</g>
		<g id="XMLID_1595_">
			<rect id="XMLID_2222_" x="269" y="255" width="131" height="4"/>
		</g>
		<g id="XMLID_1590_">
			<path id="XMLID_1591_" d="M509.7,259h-25c-1.1,0-2-0.9-2-2s0.9-2,2-2h25c1.1,0,2,0.9,2,2S510.8,259,509.7,259z"/>
		</g>
		<g id="XMLID_1588_">
			<rect id="XMLID_1589_" x="483" y="263" width="26" height="4"/>
		</g>
		<g id="XMLID_1586_">
			<path id="XMLID_1587_" d="M437.3,265.4"/>
		</g>
		<g id="XMLID_1584_">
			<rect id="XMLID_1585_" x="269" y="263" width="132" height="4"/>
		</g>
		<g id="XMLID_1582_">
			<rect id="XMLID_1583_" x="142" y="255" width="56" height="4"/>
		</g>
		<g id="XMLID_1580_">
			
				<rect id="XMLID_1581_" x="142.8" y="263" transform="matrix(1 5.400987e-003 -5.400987e-003 1 1.4338 -0.9101)" width="52.8" height="3.9"/>
		</g>
		<g id="XMLID_1578_">
			<rect id="XMLID_1579_" x="625" y="255" width="33" height="4"/>
		</g>
		<g id="XMLID_1576_">
			<rect id="XMLID_1577_" x="625" y="263" width="33" height="4"/>
		</g>
		<g id="XMLID_1574_">
			<path id="XMLID_1575_" d="M350,328h-4v-44.1c0-0.5,0.5-1,0.9-1.4l18.6-18.5l2.6,2.8L350,284.7V328z"/>
		</g>
		<g id="XMLID_1572_">
			<path id="XMLID_1573_" d="M330,325h-4v-40.3l-19.1-17.9l2.9-2.9l19.9,18.5c0.4,0.4,0.4,0.9,0.4,1.5V325z"/>
		</g>
		<g id="XMLID_1568_">
			<path id="XMLID_1569_" d="M292.4,259c-0.7,0-1.4,0-1.7-0.6l-4.8-8.3c-0.3-0.5-0.3-1-0.1-1.6l8.9-22.2c0.3-0.7,1-1.3,1.8-1.3h75.6
				c1.1,0,1.8,1.1,1.8,2.1v30.4c0,1.1-0.8,1.5-1.9,1.5L292.4,259L292.4,259z M289.9,249.1l3.6,6.7l76.5-0.3V229h-72.1L289.9,249.1z"
				/>
		</g>
		<g id="XMLID_1566_">
			<path id="XMLID_1567_" d="M377,258.7c-1.1,0-2-0.9-2-2v-28.9c0-1.1,0.9-2,2-2s2,0.9,2,2v28.9C379,257.8,378.1,258.7,377,258.7z"
				/>
		</g>
		<g id="XMLID_1564_">
			<path id="XMLID_1565_" d="M382,258.7c-1.1,0-2-0.9-2-2v-28.9c0-1.1,0.9-2,2-2s2,0.9,2,2v28.9C384,257.8,383.1,258.7,382,258.7z"
				/>
		</g>
		<g id="XMLID_1562_">
			<path id="XMLID_1563_" d="M404.4,229h-32.9c-1.1,0-2-0.9-2-2s0.9-2,2-2h32.9c1.1,0,2,0.9,2,2S405.5,229,404.4,229z"/>
		</g>
		<g id="XMLID_1560_">
			<path id="XMLID_1561_" d="M296.7,244.8c-0.2,0-0.4,0-0.7-0.1c-1-0.4-1.6-1.5-1.2-2.5l3.6-10.2c0.4-1,1.5-1.6,2.5-1.2
				c1,0.4,1.6,1.5,1.2,2.5l-3.6,10.2C298.3,244.3,297.5,244.8,296.7,244.8z"/>
		</g>
		<g id="XMLID_1558_">
			<path id="XMLID_1559_" d="M371.6,250H290c-0.4,0-0.7-0.1-0.7-0.5s0.3-0.5,0.7-0.5h81.6c0.4,0,0.7,0.1,0.7,0.5
				S371.9,250,371.6,250z"/>
		</g>
		<g id="XMLID_1556_">
			<path id="XMLID_1557_" d="M401.8,250h-19.7c-0.4,0-0.7-0.1-0.7-0.5s0.3-0.5,0.7-0.5h19.7c0.4,0,0.7,0.1,0.7,0.5
				S402.2,250,401.8,250z"/>
		</g>
		<g id="XMLID_1547_">
			<g id="XMLID_1552_">
				<path id="XMLID_1553_" d="M314.6,241.4h-6c-0.4,0-0.7-0.3-0.7-0.7v-5.5c0-0.4,0.3-0.7,0.7-0.7h6c0.4,0,0.7,0.3,0.7,0.7v5.5
					C315.3,241.1,315,241.4,314.6,241.4z M309.3,240h4.7v-4.2h-4.7V240z"/>
			</g>
			<g id="XMLID_1548_">
				<path id="XMLID_1549_" d="M322.8,241.4h-6c-0.4,0-0.7-0.3-0.7-0.7v-5.5c0-0.4,0.3-0.7,0.7-0.7h6c0.4,0,0.7,0.3,0.7,0.7v5.5
					C323.5,241.1,323.2,241.4,322.8,241.4z M317.5,240h4.7v-4.2h-4.7V240z"/>
			</g>
		</g>
		<g id="XMLID_1538_">
			<g id="XMLID_1543_">
				<path id="XMLID_1544_" d="M335.9,241.4h-6c-0.4,0-0.7-0.3-0.7-0.7v-5.5c0-0.4,0.3-0.7,0.7-0.7h6c0.4,0,0.7,0.3,0.7,0.7v5.5
					C336.6,241.1,336.3,241.4,335.9,241.4z M330.6,240h4.7v-4.2h-4.7V240z"/>
			</g>
			<g id="XMLID_1539_">
				<path id="XMLID_1540_" d="M344.1,241.4h-6c-0.4,0-0.7-0.3-0.7-0.7v-5.5c0-0.4,0.3-0.7,0.7-0.7h6c0.4,0,0.7,0.3,0.7,0.7v5.5
					C344.8,241.1,344.5,241.4,344.1,241.4z M338.8,240h4.7v-4.2h-4.7V240z"/>
			</g>
		</g>
		<g id="XMLID_1529_">
			<g id="XMLID_1534_">
				<path id="XMLID_1535_" d="M357.2,241.4h-6c-0.4,0-0.7-0.3-0.7-0.7v-5.5c0-0.4,0.3-0.7,0.7-0.7h6c0.4,0,0.7,0.3,0.7,0.7v5.5
					C357.9,241.1,357.6,241.4,357.2,241.4z M351.9,240h4.7v-4.2h-4.7V240z"/>
			</g>
			<g id="XMLID_1530_">
				<path id="XMLID_1531_" d="M365.4,241.4h-6c-0.4,0-0.7-0.3-0.7-0.7v-5.5c0-0.4,0.3-0.7,0.7-0.7h6c0.4,0,0.7,0.3,0.7,0.7v5.5
					C366.1,241.1,365.8,241.4,365.4,241.4z M360.1,240h4.7v-4.2h-4.7V240z"/>
			</g>
		</g>
		<g id="XMLID_1520_">
			<g id="XMLID_1525_">
				<path id="XMLID_1526_" d="M394,241.4h-6c-0.4,0-0.7-0.3-0.7-0.7v-5.5c0-0.4,0.3-0.7,0.7-0.7h6c0.4,0,0.7,0.3,0.7,0.7v5.5
					C394.6,241.1,394.3,241.4,394,241.4z M388.7,240h4.7v-4.2h-4.7V240z"/>
			</g>
			<g id="XMLID_1521_">
				<path id="XMLID_1522_" d="M402.2,241.4h-6c-0.4,0-0.7-0.3-0.7-0.7v-5.5c0-0.4,0.3-0.7,0.7-0.7h6c0.4,0,0.7,0.3,0.7,0.7v5.5
					C402.8,241.1,402.5,241.4,402.2,241.4z M396.8,240h4.7v-4.2h-4.7V240z"/>
			</g>
		</g>
		<g id="XMLID_1518_">
			<path id="XMLID_1519_" d="M509.7,229h-28.9c-1.1,0-2-0.9-2-2s0.9-2,2-2h28.9c1.1,0,2,0.9,2,2S510.8,229,509.7,229z"/>
		</g>
		<g id="XMLID_1509_">
			<g id="XMLID_1514_">
				<path id="XMLID_1515_" d="M494.6,241.4h-6c-0.4,0-0.7-0.3-0.7-0.7v-5.5c0-0.4,0.3-0.7,0.7-0.7h6c0.4,0,0.7,0.3,0.7,0.7v5.5
					C495.3,241.1,495,241.4,494.6,241.4z M489.3,240h4.7v-4.2h-4.7V240z"/>
			</g>
			<g id="XMLID_1510_">
				<path id="XMLID_1511_" d="M502.8,241.4h-6c-0.4,0-0.7-0.3-0.7-0.7v-5.5c0-0.4,0.3-0.7,0.7-0.7h6c0.4,0,0.7,0.3,0.7,0.7v5.5
					C503.5,241.1,503.2,241.4,502.8,241.4z M497.5,240h4.7v-4.2h-4.7V240z"/>
			</g>
		</g>
		<g id="XMLID_952_">
			<g id="XMLID_1505_">
				<path id="XMLID_1506_" d="M447.9,365.2c-7.1,0-12.9-5.1-14.1-11.9c-2.4-0.2-4.7-0.9-6.7-2.2c-2.7,3.1-6.6,4.9-10.7,4.9
					c-4.5,0-8.7-2.1-11.4-5.6c-1,0.2-2.1,0.3-3.1,0.3c-7.9,0-14.3-6.4-14.3-14.3c0-1.9,0.4-3.7,1.1-5.5c0.3-0.8,1.1-1.3,1.9-1.2
					c17.9,1.1,36.3,1.7,54.6,1.7c6.5,0,13.2-0.1,19.8-0.2c0.9,0,1.7,0.6,1.9,1.4c0.3,1.2,0.5,2.5,0.5,3.8c0,4.5-2.1,8.7-5.6,11.3
					c0.2,1,0.4,2.1,0.4,3.1C462.2,358.8,455.8,365.2,447.9,365.2z M435.6,349.4c0.5,0,0.9,0.2,1.3,0.5c0.4,0.4,0.7,0.9,0.7,1.4
					c0.2,5.6,4.8,10,10.3,10c5.7,0,10.4-4.6,10.4-10.4c0-1.1-0.2-2.2-0.6-3.3c-0.3-0.9,0.1-1.8,0.8-2.3c3.1-1.9,5-5.2,5-8.8
					c0-0.4,0-0.8-0.1-1.2c-6.2,0.1-12.3,0.2-18.3,0.2c-17.9,0-35.8-0.5-53.3-1.6c-0.2,0.9-0.3,1.7-0.3,2.6c0,5.7,4.6,10.4,10.4,10.4
					c1.1,0,2.2-0.2,3.3-0.6c0.9-0.3,1.8,0.1,2.3,0.8c1.9,3.1,5.2,5,8.8,5c3.5,0,6.8-1.8,8.7-4.7c0.3-0.5,0.8-0.8,1.4-0.9
					c0.6-0.1,1.1,0.1,1.6,0.5c1.9,1.6,4.3,2.5,6.8,2.5c0.2,0,0.4,0,0.7,0C435.4,349.4,435.5,349.4,435.6,349.4z"/>
			</g>
			<g id="XMLID_1503_">
				<path id="XMLID_1504_" d="M510.3,387h-82.9c-1.1,0-2.5-0.9-2.5-2v-33.5c0-1.1,0.9-2,2-2s2,0.9,2,2V383h79v-51.3c0-1.1,0.9-2,2-2
					s2,0.9,2,2V385C512,386.1,511.4,387,510.3,387z"/>
			</g>
			<g id="XMLID_1501_">
				<path id="XMLID_1502_" d="M459,451h-57.9c-1.1,0-2.2-0.5-2.2-1.5v-99.3c0-1.1,0.9-2,2-2s2,0.9,2,2V447h54v-60.8c0-1.1,0.9-2,2-2
					s2,0.9,2,2v63.3C461,450.5,460.1,451,459,451z"/>
			</g>
			<g id="XMLID_1497_">
				<path id="XMLID_1498_" d="M465.3,419.3c-2.5,0-5.8-0.7-7.6-2.4c-0.4-0.4-0.7-0.9-0.7-1.5V385c0-1.1,0.9-2,2-2h14.7
					c1,0,1.7,0.6,2.2,1.4c0.9-0.3,1.8-0.4,2.8-0.4c6.8,0,12.4,5.6,12.4,12.4c0,6.8-5.6,12.4-12.4,12.4c-0.3,0-0.7,0-1,0
					C476.8,414.6,471.6,419.3,465.3,419.3z M461,414.3c1,0.6,2.8,1,4.3,1c4.7,0,8.6-3.8,8.6-8.5c0-0.2,0-0.3,0-0.5
					c0-0.6,0.3-1.1,0.7-1.5c0.5-0.4,1.2-0.6,1.8-0.4c0.7,0.2,1.5,0.3,2.2,0.3c4.7,0,8.5-3.8,8.5-8.5c0-4.7-3.8-8.5-8.5-8.5
					c-0.9,0-1.9,0.4-3,0.8c-1,0.4-2.1-0.1-2.5-1l-0.1-0.3c0-0.1-0.1-0.4-0.2-0.4H461V414.3z"/>
			</g>
			<g id="XMLID_1495_">
				<path id="XMLID_1496_" d="M522.2,433h-62.5c-1.1,0-2-0.9-2-2s0.9-2,2-2H520v-52.5c0-1.1,0.9-2,2-2s2,0.9,2,2V431
					C524,432.1,523.3,433,522.2,433z"/>
			</g>
			<g id="XMLID_1493_">
				<path id="XMLID_1494_" d="M531.4,378h-19.1c-1.1,0-2-0.9-2-2s0.9-2,2-2H529v-8.7c0-1.1,1.3-2.3,2.4-2.3h6.6v-6.9
					c0-1.1,1.5-2.1,2.6-2.1h5.4v-7.1c0-1.1,1.4-1.9,2.5-1.9h8.5v-7.4c0-1.1,0.9-1.6,2-1.6h7v-4.9c0-1.1,1.1-2.1,2.2-2.1h5.8v-5.2
					c0-1.1,0.9-2,2-2s2,0.9,2,2v7.2c0,1.1-0.8,1.9-1.9,1.9H570v4.6c0,1.1-0.7,2.4-1.8,2.4H561v6.9c0,1.1-0.9,2.1-2,2.1h-9v7.1
					c0,1.1-0.4,1.9-1.5,1.9H542v7.3c0,1.1-0.3,1.7-1.4,1.7H533v8.8C533,376.9,532.5,378,531.4,378z"/>
			</g>
			<g id="XMLID_1491_">
				<path id="XMLID_1492_" d="M522.2,400.9c-0.8,0-1.6-0.5-1.8-1.3c-0.4-1,0-2.2,1-2.5L583,374v-51.5c0-1.1,0.9-2,2-2s2,0.9,2,2
					v52.9c0,0.8-0.4,1.6-1.1,1.8l-63,23.6C522.6,400.9,522.5,400.9,522.2,400.9z"/>
			</g>
			<g id="XMLID_1489_">
				<path id="XMLID_1490_" d="M584.7,375H532c-1.1,0-2-0.9-2-2s0.9-2,2-2h52.6c1.1,0,2,0.9,2,2S585.8,375,584.7,375z"/>
			</g>
			<g id="XMLID_1487_">
				<path id="XMLID_1488_" d="M576.1,416h-30.3c-1.1,0-2.9-1-2.9-2.1v-21.7c0-1.1,0.9-2,2-2s2,0.9,2,2V412h27v-32.9c0-1.1,0.9-2,2-2
					s2,0.9,2,2v34.9C578,415,577.2,416,576.1,416z"/>
			</g>
			<g id="XMLID_1485_">
				<path id="XMLID_1486_" d="M522.2,441h-62.5c-1.1,0-2-0.9-2-2s0.9-2,2-2H520v-7.9c0-1.1,0.9-2,2-2s2,0.9,2,2v9.9
					C524,440,523.3,441,522.2,441z"/>
			</g>
			<g id="XMLID_1483_">
				<path id="XMLID_1484_" d="M576.1,426h-11.8c-1.1,0-2.3-0.4-2.3-1.5v-8.6c0-1.1,0.9-2,2-2s2,0.9,2,2v6.1h8v-8.7c0-1.1,0.9-2,2-2
					s2,0.9,2,2v11.2C578,425.6,577.2,426,576.1,426z"/>
			</g>
			<g id="XMLID_1481_">
				<path id="XMLID_1482_" d="M557,405h-5.3c-1.1,0-2-0.9-2-2s0.9-2,2-2h5.3c1.1,0,2,0.9,2,2S558.1,405,557,405z"/>
			</g>
			<g id="XMLID_1479_">
				<path id="XMLID_1480_" d="M567.6,405h-5.3c-1.1,0-2-0.9-2-2s0.9-2,2-2h5.3c1.1,0,2,0.9,2,2S568.7,405,567.6,405z"/>
			</g>
			<g id="XMLID_1477_">
				<path id="XMLID_1478_" d="M557,400h-5.3c-1.1,0-2-0.9-2-2s0.9-2,2-2h5.3c1.1,0,2,0.9,2,2S558.1,400,557,400z"/>
			</g>
			<g id="XMLID_1475_">
				<path id="XMLID_1476_" d="M567.6,400h-5.3c-1.1,0-2-0.9-2-2s0.9-2,2-2h5.3c1.1,0,2,0.9,2,2S568.7,400,567.6,400z"/>
			</g>
			<g id="XMLID_1471_">
				<path id="XMLID_1472_" d="M500.1,375.2h-25.8c-0.7,0-1.3-0.6-1.3-1.3v-26.4c0-0.7,0.6-1.3,1.3-1.3h25.8c0.7,0,1.3,0.6,1.3,1.3
					v26.4C501.4,374.6,500.8,375.2,500.1,375.2z M475.7,372.6h23.1v-23.8h-23.1V372.6z"/>
			</g>
			<g id="XMLID_1469_">
				<path id="XMLID_1470_" d="M465.2,375.2h-25.8c-0.7,0-1.3-0.6-1.3-1.3v-13.2c0-0.7,0.6-1.3,1.3-1.3c0.7,0,1.3,0.6,1.3,1.3v11.9
					h23.1v-23.8h-4.3c-0.7,0-1.3-0.6-1.3-1.3c0-0.7,0.6-1.3,1.3-1.3h5.6c0.7,0,1.3,0.6,1.3,1.3v26.4
					C466.5,374.6,465.9,375.2,465.2,375.2z"/>
			</g>
			<g id="XMLID_1467_">
				<path id="XMLID_1468_" d="M525.5,396.8c-0.4,0-0.5-0.3-0.5-0.7v-19.7c0-0.4,0.1-0.7,0.5-0.7s0.5,0.3,0.5,0.7v19.7
					C526,396.5,525.9,396.8,525.5,396.8z"/>
			</g>
			<g id="XMLID_1465_">
				<path id="XMLID_1466_" d="M531,396.8c-0.4,0-1-0.3-1-0.7v-22.4c0-0.4,0.6-0.7,1-0.7s1,0.3,1,0.7v22.4
					C532,396.5,531.4,396.8,531,396.8z"/>
			</g>
			<g id="XMLID_1463_">
				<path id="XMLID_1464_" d="M536.5,394.2c-0.4,0-0.5-0.3-0.5-0.7v-19.7c0-0.4,0.1-0.7,0.5-0.7s0.5,0.3,0.5,0.7v19.7
					C537,393.9,536.9,394.2,536.5,394.2z"/>
			</g>
			<g id="XMLID_1461_">
				<path id="XMLID_1462_" d="M541.5,391.6c-0.4,0-0.5-0.3-0.5-0.7v-17.1c0-0.4,0.1-0.7,0.5-0.7s0.5,0.3,0.5,0.7v17.1
					C542,391.3,541.9,391.6,541.5,391.6z"/>
			</g>
			<g id="XMLID_1459_">
				<path id="XMLID_1460_" d="M546.5,390.3c-0.4,0-0.5-0.3-0.5-0.7v-15.8c0-0.4,0.1-0.7,0.5-0.7s0.5,0.3,0.5,0.7v15.8
					C547,390,546.9,390.3,546.5,390.3z"/>
			</g>
			<g id="XMLID_1457_">
				<path id="XMLID_1458_" d="M552,388.9c-0.4,0-1-0.3-1-0.7v-14.5c0-0.4,0.6-0.7,1-0.7s1,0.3,1,0.7v14.5
					C553,388.7,552.4,388.9,552,388.9z"/>
			</g>
			<g id="XMLID_1455_">
				<path id="XMLID_1456_" d="M557.5,385c-0.4,0-0.5-0.3-0.5-0.7v-10.5c0-0.4,0.1-0.7,0.5-0.7s0.5,0.3,0.5,0.7v10.5
					C558,384.7,557.9,385,557.5,385z"/>
			</g>
			<g id="XMLID_1453_">
				<path id="XMLID_1454_" d="M562.5,383.7c-0.4,0-0.5-0.3-0.5-0.7v-9.2c0-0.4,0.1-0.7,0.5-0.7s0.5,0.3,0.5,0.7v9.2
					C563,383.4,562.9,383.7,562.5,383.7z"/>
			</g>
			<g id="XMLID_1451_">
				<path id="XMLID_1452_" d="M567.5,382.4c-0.4,0-0.5-0.3-0.5-0.7v-7.9c0-0.4,0.1-0.7,0.5-0.7s0.5,0.3,0.5,0.7v7.9
					C568,382.1,567.9,382.4,567.5,382.4z"/>
			</g>
			<g id="XMLID_1449_">
				<path id="XMLID_1450_" d="M573,379.7c-0.4,0-1-0.3-1-0.7v-5.3c0-0.4,0.6-0.7,1-0.7s1,0.3,1,0.7v5.3
					C574,379.4,573.4,379.7,573,379.7z"/>
			</g>
			<g id="XMLID_1445_">
				<path id="XMLID_1446_" d="M576.6,365.7h-8.6c-0.7,0-1.3-0.6-1.3-1.3v-22.1c0-0.7,0.6-1.3,1.3-1.3h8.6c0.7,0,1.3,0.6,1.3,1.3
					v22.1C577.9,365.1,577.4,365.7,576.6,365.7z M569.4,363.1h5.9v-19.5h-5.9V363.1z"/>
			</g>
			<g id="XMLID_1441_">
				<path id="XMLID_1442_" d="M558.5,365.7H550c-0.7,0-1.3-0.6-1.3-1.3v-17.9c0-0.7,0.6-1.3,1.3-1.3h8.6c0.7,0,1.3,0.6,1.3,1.3v17.9
					C559.9,365.1,559.3,365.7,558.5,365.7z M551.3,363.1h5.9v-15.3h-5.9V363.1z"/>
			</g>
			<g id="XMLID_1439_">
				<path id="XMLID_1440_" d="M434.7,411h-11.8c-0.4,0-0.7-0.6-0.7-1s0.3-1,0.7-1h11.8c0.4,0,0.7,0.6,0.7,1S435.1,411,434.7,411z"/>
			</g>
			<g id="XMLID_1437_">
				<path id="XMLID_1438_" d="M449.2,411h-11.8c-0.4,0-0.7-0.6-0.7-1s0.3-1,0.7-1h11.8c0.4,0,0.7,0.6,0.7,1S449.5,411,449.2,411z"/>
			</g>
			<g id="XMLID_1435_">
				<path id="XMLID_1436_" d="M441.3,415h-11.8c-0.4,0-0.7-0.6-0.7-1s0.3-1,0.7-1h11.8c0.4,0,0.7,0.6,0.7,1S441.6,415,441.3,415z"/>
			</g>
			<g id="XMLID_1433_">
				<path id="XMLID_1434_" d="M487.3,424h-11.8c-0.4,0-0.7-0.6-0.7-1s0.3-1,0.7-1h11.8c0.4,0,0.7,0.6,0.7,1S487.7,424,487.3,424z"/>
			</g>
			<g id="XMLID_1431_">
				<path id="XMLID_1432_" d="M470.2,424h-11.8c-0.4,0-0.7-0.6-0.7-1s0.3-1,0.7-1h11.8c0.4,0,0.7,0.6,0.7,1S470.6,424,470.2,424z"/>
			</g>
			<g id="XMLID_1429_">
				<path id="XMLID_1430_" d="M514.9,400h-11.8c-0.4,0-0.7-0.1-0.7-0.5s0.3-0.5,0.7-0.5h11.8c0.4,0,0.7,0.1,0.7,0.5
					S515.3,400,514.9,400z"/>
			</g>
			<g id="XMLID_1427_">
				<path id="XMLID_1428_" d="M501.8,394H490c-0.4,0-0.7-0.6-0.7-1s0.3-1,0.7-1h11.8c0.4,0,0.7,0.6,0.7,1S502.2,394,501.8,394z"/>
			</g>
			<g id="XMLID_1425_">
				<path id="XMLID_1426_" d="M508.4,338h-6.6c-0.7,0-1.3-0.3-1.3-1s0.6-1,1.3-1h6.6c0.7,0,1.3,0.3,1.3,1S509.1,338,508.4,338z"/>
			</g>
			<g id="XMLID_1423_">
				<path id="XMLID_1424_" d="M496.5,338H490c-0.7,0-1.3-0.3-1.3-1s0.6-1,1.3-1h6.6c0.7,0,1.3,0.3,1.3,1S497.3,338,496.5,338z"/>
			</g>
			<g id="XMLID_1421_">
				<path id="XMLID_1422_" d="M487.3,344h-6.6c-0.7,0-1.3-0.8-1.3-1.5s0.6-1.5,1.3-1.5h6.6c0.7,0,1.3,0.8,1.3,1.5S488,344,487.3,344
					z"/>
			</g>
			<g id="XMLID_1419_">
				<path id="XMLID_1420_" d="M434.7,380h-6.6c-0.7,0-1.3-0.3-1.3-1s0.6-1,1.3-1h6.6c0.7,0,1.3,0.3,1.3,1S435.4,380,434.7,380z"/>
			</g>
			<g id="XMLID_1417_">
				<path id="XMLID_1418_" d="M472.8,380h-6.6c-0.7,0-1.3-0.3-1.3-1s0.6-1,1.3-1h6.6c0.7,0,1.3,0.3,1.3,1S473.6,380,472.8,380z"/>
			</g>
			<g id="XMLID_1415_">
				<path id="XMLID_1416_" d="M467.6,375H465c-0.7,0-1.3-0.3-1.3-1s0.6-1,1.3-1h2.6c0.7,0,1.3,0.3,1.3,1S468.3,375,467.6,375z"/>
			</g>
			<g id="XMLID_1413_">
				<path id="XMLID_1414_" d="M472.8,363h-2.6c-0.7,0-1.3-0.3-1.3-1s0.6-1,1.3-1h2.6c0.7,0,1.3,0.3,1.3,1S473.6,363,472.8,363z"/>
			</g>
			<g id="XMLID_1411_">
				<path id="XMLID_1412_" d="M521.5,394h-11.8c-0.4,0-0.7-0.6-0.7-1s0.3-1,0.7-1h11.8c0.4,0,0.7,0.6,0.7,1S521.9,394,521.5,394z"/>
			</g>
			<g id="XMLID_1409_">
				<path id="XMLID_1410_" d="M562.3,395h-11.8c-0.4,0-0.7-0.1-0.7-0.5s0.3-0.5,0.7-0.5h11.8c0.4,0,0.7,0.1,0.7,0.5
					S562.7,395,562.3,395z"/>
			</g>
			<g id="XMLID_1407_">
				<path id="XMLID_1408_" d="M558.4,411h-11.8c-0.4,0-0.7-0.6-0.7-1s0.3-1,0.7-1h11.8c0.4,0,0.7,0.6,0.7,1S558.7,411,558.4,411z"/>
			</g>
			<g id="XMLID_1405_">
				<path id="XMLID_1406_" d="M530.7,366h-18.4c-0.7,0-1.3-0.8-1.3-1.5s0.6-1.5,1.3-1.5h18.4c0.7,0,1.3,0.8,1.3,1.5
					S531.5,366,530.7,366z"/>
			</g>
			<g id="XMLID_1403_">
				<path id="XMLID_1404_" d="M539.9,357h-27.6c-0.7,0-1.3-0.8-1.3-1.5s0.6-1.5,1.3-1.5h27.6c0.7,0,1.3,0.8,1.3,1.5
					S540.7,357,539.9,357z"/>
			</g>
			<g id="XMLID_1401_">
				<path id="XMLID_1402_" d="M547.8,348h-38.1c-0.7,0-1.3-0.8-1.3-1.5s0.6-1.5,1.3-1.5h38.1c0.7,0,1.3,0.8,1.3,1.5
					S548.6,348,547.8,348z"/>
			</g>
			<g id="XMLID_1399_">
				<path id="XMLID_1400_" d="M559.7,338h-46c-0.7,0-1.3-0.3-1.3-1s0.6-1,1.3-1h46c0.7,0,1.3,0.3,1.3,1S560.4,338,559.7,338z"/>
			</g>
			<g id="XMLID_1397_">
				<path id="XMLID_1398_" d="M568.9,332h-39.5c-0.7,0-1.3-0.8-1.3-1.5s0.6-1.5,1.3-1.5h39.5c0.7,0,1.3,0.8,1.3,1.5
					S569.6,332,568.9,332z"/>
			</g>
			<g id="XMLID_1393_">
				<path id="XMLID_1394_" d="M627.3,402.9c-11.1,0-19.7-13.8-19.7-31.5s8.7-31.5,19.7-31.5c11.1,0,19.7,13.8,19.7,31.5
					S638.3,402.9,627.3,402.9z M627.3,343.8c-8.6,0-15.8,12.6-15.8,27.6s7.2,27.6,15.8,27.6s15.8-12.6,15.8-27.6
					S635.8,343.8,627.3,343.8z"/>
			</g>
			<g id="XMLID_1391_">
				<path id="XMLID_1392_" d="M626,352.1c-1.1,0-2-0.9-2-2v-34.2c0-1.1,0.9-2,2-2s2,0.9,2,2v34.2C628,351.2,627.1,352.1,626,352.1z"
					/>
			</g>
			<g id="XMLID_1387_">
				<path id="XMLID_1388_" d="M662.6,367.7c-8,0-14.3-9.9-14.3-22.5c0-12.6,6.3-22.5,14.3-22.5s14.3,9.9,14.3,22.5
					C677,357.8,670.7,367.7,662.6,367.7z M662.6,326.6c-5.6,0-10.4,8.5-10.4,18.6c0,10.1,4.8,18.6,10.4,18.6s10.4-8.5,10.4-18.6
					C673,335.1,668.3,326.6,662.6,326.6z"/>
			</g>
			<g id="XMLID_1385_">
				<path id="XMLID_1386_" d="M661,332.4c-1.1,0-2-0.9-2-2v-23.7c0-1.1,0.9-2,2-2s2,0.9,2,2v23.7C663,331.5,662.1,332.4,661,332.4z"
					/>
			</g>
			<g id="XMLID_1381_">
				<path id="XMLID_1382_" d="M426,439.8h-15.8c-0.7,0-1.3-0.6-1.3-1.3v-18.4c0-0.7,0.6-1.3,1.3-1.3H426c0.7,0,1.3,0.6,1.3,1.3v18.4
					C427.3,439.2,426.7,439.8,426,439.8z M411.5,437.2h13.2v-15.8h-13.2V437.2z"/>
			</g>
			<g id="XMLID_1377_">
				<path id="XMLID_1378_" d="M451.7,439.8h-15.8c-0.7,0-1.3-0.6-1.3-1.3v-18.4c0-0.7,0.6-1.3,1.3-1.3h15.8c0.7,0,1.3,0.6,1.3,1.3
					v18.4C453,439.2,452.4,439.8,451.7,439.8z M437.2,437.2h13.2v-15.8h-13.2V437.2z"/>
			</g>
			<g id="XMLID_1373_">
				<path id="XMLID_1374_" d="M451.7,408.3h-15.8c-0.7,0-1.3-0.6-1.3-1.3v-18.4c0-0.7,0.6-1.3,1.3-1.3h15.8c0.7,0,1.3,0.6,1.3,1.3
					v18.4C453,407.7,452.4,408.3,451.7,408.3z M437.2,405.6h13.2v-15.8h-13.2V405.6z"/>
			</g>
			<g id="XMLID_1371_">
				<path id="XMLID_1372_" d="M401,358.6c-0.2,0-0.3-0.1-0.5-0.2l-0.9-0.9c-0.3-0.3-0.3-0.7,0-0.9s0.7-0.3,0.9,0l0.9,0.9
					c0.3,0.3,0.3,0.7,0,0.9C401.3,358.5,401.2,358.6,401,358.6z"/>
			</g>
			<g id="XMLID_1369_">
				<path id="XMLID_1370_" d="M400.5,365h-13.8c-1.1,0-2.7-1.3-2.7-2.4V358h-7.8c-1.1,0-2.2-0.8-2.2-1.9V351h-8.4
					c-1.1,0-2.6-0.4-2.6-1.5V346h-7.9c-1.1,0-2.1-0.7-2.1-1.8V341h-9.7c-1.1,0-2.3-1-2.3-2v-3h-8.2c-1.1,0-2.8-1.2-2.8-2.3V330
					h-10.4c-1.1,0-2.6-0.5-2.6-1.6v-3.3c0-1.1,0.9-2,2-2s2,0.9,2,2v0.9h11.8c1.1,0,1.2,1.3,1.2,2.4v3.6h9.3c1.1,0,1.7,0.6,1.7,1.7
					v3.3h10.1c1.1,0,1.9,0.9,1.9,2v3h8.6c1.1,0,1.4,1.1,1.4,2.2v3.8h9.2c1.1,0,1.8,0.4,1.8,1.5v4.5h8.7c1.1,0,1.3,1,1.3,2.1v4.9
					h12.5c1.1,0,2,0.9,2,2S401.6,365,400.5,365z"/>
			</g>
			<g id="XMLID_1367_">
				<path id="XMLID_1368_" d="M400.5,390h-29.6c-1.1,0-1.9-1.3-1.9-2.4v-37.5c0-1.1,0.4-2,1.5-2s1.5,0.9,1.5,2V386h28.5
					c1.1,0,2,0.9,2,2S401.6,390,400.5,390z"/>
			</g>
			<g id="XMLID_1365_">
				<path id="XMLID_1366_" d="M371.4,405c-0.7,0-1.4-0.4-1.8-1.1c-0.5-1-0.1-2.2,0.9-2.7l28.7-14.5c1-0.5,2.2-0.1,2.7,0.9
					c0.5,1,0.1,2.2-0.9,2.7l-28.7,14.5C372,404.9,371.7,405,371.4,405z"/>
			</g>
			<g id="XMLID_1082_">
				<path id="XMLID_1364_" d="M400.5,425h-69.1c-1.1,0-2.4-0.8-2.4-1.9v-13.8c0-1.1,0.9-2,2-2s2,0.9,2,2V421h67.5c1.1,0,2,0.9,2,2
					S401.6,425,400.5,425z"/>
			</g>
			<g id="XMLID_1080_">
				<path id="XMLID_1081_" d="M315,342.9c-1.1,0-2-0.9-2-2v-15.8c0-1.1,0.9-2,2-2s2,0.9,2,2v15.8C317,342,316.1,342.9,315,342.9z"/>
			</g>
			<g id="XMLID_1078_">
				<path id="XMLID_1079_" d="M370.9,411h-55.2c-1.1,0-2.7-1.2-2.7-2.3v-44.1c0-1.1,0.9-2,2-2s2,0.9,2,2V407h52v-20
					c0-1.1,0.4-2,1.5-2s1.5,0.9,1.5,2v21.7C372,409.8,372,411,370.9,411z"/>
			</g>
			<g id="XMLID_1075_">
				<path id="XMLID_1077_" d="M370.2,369h-53.9c-1.1,0-2-0.9-2-2s0.9-2,2-2h53.9c1.1,0,2,0.9,2,2S371.3,369,370.2,369z"/>
			</g>
			<g id="XMLID_1071_">
				<path id="XMLID_1072_" d="M393.8,417.1h-5.7c-0.7,0-1.3-0.6-1.3-1.3v-16.4c0-0.7,0.6-1.3,1.3-1.3h5.7c0.7,0,1.3,0.6,1.3,1.3
					v16.4C395.1,416.5,394.5,417.1,393.8,417.1z M389.4,414.5h3v-13.8h-3V414.5z"/>
			</g>
			<g id="XMLID_1067_">
				<path id="XMLID_1068_" d="M383.4,417.1h-5.7c-0.7,0-1.3-0.6-1.3-1.3v-16.4c0-0.7,0.6-1.3,1.3-1.3h5.7c0.7,0,1.3,0.6,1.3,1.3
					v16.4C384.8,416.5,384.2,417.1,383.4,417.1z M379.1,414.5h3v-13.8h-3V414.5z"/>
			</g>
			<g id="XMLID_1063_">
				<path id="XMLID_1064_" d="M389.5,380.1c-3.4,0-6.2-2.8-6.2-6.2s2.8-6.2,6.2-6.2s6.2,2.8,6.2,6.2S392.9,380.1,389.5,380.1z
					 M389.5,370.3c-2,0-3.6,1.6-3.6,3.6c0,2,1.6,3.6,3.6,3.6c2,0,3.6-1.6,3.6-3.6C393.1,371.9,391.5,370.3,389.5,370.3z"/>
			</g>
			<g id="XMLID_1061_">
				<path id="XMLID_1062_" d="M358.4,379h-42.1c-0.7,0-1.3-0.8-1.3-1.5s0.6-1.5,1.3-1.5h42.1c0.7,0,1.3,0.8,1.3,1.5
					S359.1,379,358.4,379z"/>
			</g>
			<g id="XMLID_1057_">
				<path id="XMLID_1058_" d="M340.5,399h-17.2c-0.7,0-1.3-0.6-1.3-1.3V378c0-0.7,0.6-1.3,1.3-1.3h17.2c0.7,0,1.3,0.6,1.3,1.3v19.7
					C341.8,398.5,341.2,399,340.5,399z M324.6,396.4h14.6v-17.1h-14.6V396.4z"/>
			</g>
			<g id="XMLID_1055_">
				<path id="XMLID_1056_" d="M320.5,378.4c-0.4,0-0.5-0.3-0.5-0.7v-11.8c0-0.4,0.1-0.7,0.5-0.7s0.5,0.3,0.5,0.7v11.8
					C321,378.1,320.9,378.4,320.5,378.4z"/>
			</g>
			<g id="XMLID_1053_">
				<path id="XMLID_1054_" d="M328.5,378.4c-0.4,0-0.5-0.3-0.5-0.7v-11.8c0-0.4,0.1-0.7,0.5-0.7s0.5,0.3,0.5,0.7v11.8
					C329,378.1,328.9,378.4,328.5,378.4z"/>
			</g>
			<g id="XMLID_1051_">
				<path id="XMLID_1052_" d="M336.5,378.4c-0.4,0-0.5-0.3-0.5-0.7v-11.8c0-0.4,0.1-0.7,0.5-0.7s0.5,0.3,0.5,0.7v11.8
					C337,378.1,336.9,378.4,336.5,378.4z"/>
			</g>
			<g id="XMLID_1049_">
				<path id="XMLID_1050_" d="M344.5,378.4c-0.4,0-0.5-0.3-0.5-0.7v-11.8c0-0.4,0.1-0.7,0.5-0.7s0.5,0.3,0.5,0.7v11.8
					C345,378.1,344.9,378.4,344.5,378.4z"/>
			</g>
			<g id="XMLID_1047_">
				<path id="XMLID_1048_" d="M352,378.4c-0.4,0-1-0.3-1-0.7v-11.8c0-0.4,0.6-0.7,1-0.7s1,0.3,1,0.7v11.8
					C353,378.1,352.4,378.4,352,378.4z"/>
			</g>
			<g id="XMLID_1045_">
				<path id="XMLID_1046_" d="M356,378.4c-0.4,0-1-0.3-1-0.7v-11.8c0-0.4,0.6-0.7,1-0.7s1,0.3,1,0.7v11.8
					C357,378.1,356.4,378.4,356,378.4z"/>
			</g>
			<g id="XMLID_1043_">
				<path id="XMLID_1044_" d="M332.1,345h-3.9c-0.4,0-0.7-0.1-0.7-0.5s0.3-0.5,0.7-0.5h3.9c0.4,0,0.7,0.1,0.7,0.5
					S332.5,345,332.1,345z"/>
			</g>
			<g id="XMLID_1041_">
				<path id="XMLID_1042_" d="M328.2,349h-3.9c-0.4,0-0.7-0.1-0.7-0.5s0.3-0.5,0.7-0.5h3.9c0.4,0,0.7,0.1,0.7,0.5
					S328.5,349,328.2,349z"/>
			</g>
			<g id="XMLID_1039_">
				<path id="XMLID_1040_" d="M333.4,357h-7.9c-0.4,0-0.7-0.6-0.7-1s0.3-1,0.7-1h7.9c0.4,0,0.7,0.6,0.7,1S333.8,357,333.4,357z"/>
			</g>
			<g id="XMLID_1037_">
				<path id="XMLID_1038_" d="M301.8,342H213c-1.1,0-2-0.6-2-1.7v-37.5c0-1.1,0.9-2,2-2s2,0.9,2,2V338h86.8c1.1,0,2,0.9,2,2
					S302.9,342,301.8,342z"/>
			</g>
			<g id="XMLID_1033_">
				<path id="XMLID_1034_" d="M222,401.9c-8,0-14.3-9.9-14.3-22.5s6.3-22.5,14.3-22.5s14.3,9.9,14.3,22.5S230,401.9,222,401.9z
					 M222,360.8c-5.6,0-10.4,8.5-10.4,18.6S216.3,398,222,398s10.4-8.5,10.4-18.6S227.6,360.8,222,360.8z"/>
			</g>
			<g id="XMLID_1031_">
				<path id="XMLID_1032_" d="M221,366.6c-1.1,0-2-0.9-2-2v-23.7c0-1.1,0.9-2,2-2s2,0.9,2,2v23.7C223,365.7,222.1,366.6,221,366.6z"
					/>
			</g>
			<g id="XMLID_1029_">
				<path id="XMLID_1030_" d="M315,333H213.7c-0.4,0-0.7-0.1-0.7-0.5s0.3-0.5,0.7-0.5H315c0.4,0,0.7,0.1,0.7,0.5S315.4,333,315,333z
					"/>
			</g>
			<g id="XMLID_1027_">
				<path id="XMLID_1028_" d="M251.9,326h-31.6c-0.4,0-0.7-0.1-0.7-0.5s0.3-0.5,0.7-0.5h31.6c0.4,0,0.7,0.1,0.7,0.5
					S252.2,326,251.9,326z"/>
			</g>
			<g id="XMLID_1025_">
				<path id="XMLID_1026_" d="M251.9,316h-31.6c-0.4,0-0.7-0.1-0.7-0.5s0.3-0.5,0.7-0.5h31.6c0.4,0,0.7,0.1,0.7,0.5
					S252.2,316,251.9,316z"/>
			</g>
			<g id="XMLID_1021_">
				<path id="XMLID_1022_" d="M290.5,374.7c-6.9,0-12.5-5.6-12.5-12.5c0-0.7,0.1-1.4,0.2-2c-6-0.9-10.7-6-10.7-12.3
					c0-4,1.8-7.9,4.5-9.5c0.3-0.2,0.7-0.4,1-0.4h27.7c2.2-2,5.1-2.9,8.2-2.9c6.9,0,12.5,5.7,12.5,12.6c0,2.4-0.7,4.7-1.9,6.7
					c0.4,1.2,0.6,2.6,0.6,3.9c0,6.9-5.6,12.5-12.5,12.5c-2.3,0-4.6-0.6-6.6-1.9C298.8,372.5,294.8,374.7,290.5,374.7z M280.8,356.3
					c0.6,0,1.2,0.3,1.6,0.8c0.4,0.6,0.5,1.3,0.2,1.9c-0.4,1-0.6,2.1-0.6,3.2c0,4.7,3.8,8.5,8.6,8.5c3.5,0,6.8-2.2,8-5.6
					c0.2-0.6,0.8-1.1,1.4-1.2c0.6-0.2,1.3,0,1.8,0.5c1.6,1.5,3.7,2.4,5.9,2.4c4.7,0,8.6-3.8,8.6-8.6c0-1.2-0.2-2.3-0.7-3.4
					c-0.3-0.7-0.2-1.4,0.2-2c1.2-1.5,1.8-3.3,1.8-5.2c0-4.7-3.8-8.6-8.6-8.6c-2,0-4,0.7-5.5,2c-0.1,0.2-0.3,0.4-0.4,0.6
					c-0.4,0.4-1,0.5-1.5,0.4c-0.2,0-0.4-0.3-0.6-0.3h-27.2c-1.3,1-2.2,3.5-2.2,5.8c0,4.7,3.8,8.5,8.6,8.5l0.1,0
					C280.3,356.3,280.5,356.3,280.8,356.3C280.7,356.3,280.7,356.3,280.8,356.3z"/>
			</g>
			<g id="XMLID_1019_">
				<path id="XMLID_1020_" d="M400.5,419h-68.4c-0.4,0-0.7-0.6-0.7-1s0.3-1,0.7-1h68.4c0.4,0,0.7,0.6,0.7,1S400.9,419,400.5,419z"/>
			</g>
			<g id="XMLID_1017_">
				<path id="XMLID_1018_" d="M370.2,362h-52.6c-0.4,0-0.7-0.1-0.7-0.5s0.3-0.5,0.7-0.5h52.6c0.4,0,0.7,0.1,0.7,0.5
					S370.6,362,370.2,362z"/>
			</g>
			<g id="XMLID_1015_">
				<path id="XMLID_1016_" d="M831.3,329h-30.3c-1.1,0-2.1-0.8-2.1-1.9v-9.2c0-1.1,1-1.9,2.1-1.9h6.9v-64.5c0-1.1,0.9-2,2-2
					s2,0.9,2,2v66.4c0,1.1-0.6,2.1-1.7,2.1H803v5h26v-5h-8.2c-1.1,0-2.8-1-2.8-2.1v-70.4c0-1.1,0.9-2,2-2s2,0.9,2,2V316h9.3
					c1.1,0,1.7,0.8,1.7,1.9v9.2C833,328.2,832.4,329,831.3,329z"/>
			</g>
			<g id="XMLID_1013_">
				<path id="XMLID_1014_" d="M691.9,380h-30.3c-1.1,0-2.6-0.5-2.6-1.6v-9.2c0-1.1,1.5-2.2,2.6-2.2h6.4v-6.3c0-1.1,0.9-2,2-2
					s2,0.9,2,2v8.6c0,1.1-0.1,1.8-1.2,1.8H663v5h26v-5h-7.7c-1.1,0-2.3-0.7-2.3-1.8v-69.1c0-1.1,0.9-2,2-2s2,0.9,2,2V367h8.9
					c1.1,0,1.1,1.1,1.1,2.2v9.2C693,379.5,693,380,691.9,380z"/>
			</g>
			<g id="XMLID_1011_">
				<path id="XMLID_1012_" d="M670,332.4c-1.1,0-2-0.9-2-2v-25c0-1.1,0.9-2,2-2s2,0.9,2,2v25C672,331.5,671.1,332.4,670,332.4z"/>
			</g>
			<g id="XMLID_1009_">
				<path id="XMLID_1010_" d="M681.9,370.8c-0.8,0-1.5-0.5-1.8-1.2c-0.4-1,0.1-2.2,1.1-2.6L810,315.7c1-0.4,2.2,0.1,2.6,1.1
					c0.4,1-0.1,2.2-1.1,2.6l-128.9,51.3C682.4,370.7,682.1,370.8,681.9,370.8z"/>
			</g>
			<g id="XMLID_1007_">
				<path id="XMLID_1008_" d="M645.9,378c-0.9,0-1.6-0.6-1.9-1.4c-0.3-1,0.3-2.1,1.4-2.4l25.4-7.2c1.1-0.3,2.1,0.3,2.4,1.4
					c0.3,1-0.3,2.1-1.4,2.4l-25.4,7.2C646.3,378,646.1,378,645.9,378z"/>
			</g>
			<g id="XMLID_1005_">
				<path id="XMLID_1006_" d="M724.6,340h-11c-1.1,0-2-0.9-2-2s0.9-2,2-2h9.9l6.9-12.4l-4.1-12.6h-8.7c-1.1,0-2-0.9-2-2s0.9-2,2-2
					h10.2c0.9,0,1.6,0.4,1.9,1.2l4.8,14.7c0.2,0.5,0.1,1.1-0.2,1.5l-7.9,14.3C726,339.4,725.3,340,724.6,340z"/>
			</g>
			<g id="XMLID_1003_">
				<path id="XMLID_1004_" d="M724.6,340h-11c-1.1,0-2-0.9-2-2s0.9-2,2-2h9.9l6.9-12.4l-4.1-12.6h-8.7c-1.1,0-2-0.9-2-2s0.9-2,2-2
					h10.2c0.9,0,1.6,0.4,1.9,1.2l4.8,14.7c0.2,0.5,0.1,1.1-0.2,1.5l-7.9,14.3C726,339.4,725.3,340,724.6,340z"/>
			</g>
			<g id="XMLID_1001_">
				<path id="XMLID_1002_" d="M721.5,340h-12.7c-0.7,0-1.4-0.6-1.7-1.2l-7.9-14.3c-0.3-0.5-0.3-1.1-0.2-1.6l4.8-14.7
					c0.3-0.8,1-1.3,1.9-1.3h11.8c1.1,0,2,0.9,2,2s-0.9,2-2,2h-10.4l-4.1,12.6l6.9,12.4h11.5c1.1,0,2,0.9,2,2S722.6,340,721.5,340z"
					/>
			</g>
			<g id="XMLID_999_">
				<path id="XMLID_1000_" d="M715,357.4c-1.1,0-2-0.9-2-2v-17.1c0-1.1,0.9-2,2-2s2,0.9,2,2v17.1C717,356.5,716.1,357.4,715,357.4z"
					/>
			</g>
			<g id="XMLID_995_">
				<path id="XMLID_996_" d="M720.7,334h-7.9c-0.7,0-1.4-0.2-1.8-0.9l-5.3-10.4c-0.3-0.6-0.3-1.2,0.1-1.8c0.4-0.6,1-0.8,1.7-0.8
					h18.3c0.7,0,1.3,0.3,1.7,0.9c0.4,0.6,0.4,1.3,0.1,1.9l-5.1,10.3C722.1,333.8,721.4,334,720.7,334z M714,330h5.4l3.2-6h-11.9
					L714,330z"/>
			</g>
			<g id="XMLID_993_">
				<path id="XMLID_994_" d="M576.6,397.7c-0.9,0-1.6-0.6-1.9-1.4c-0.3-1,0.3-2.1,1.4-2.4l35.1-10c1-0.3,2.1,0.3,2.4,1.4
					c0.3,1-0.3,2.1-1.4,2.4l-35.1,10C577,397.7,576.8,397.7,576.6,397.7z"/>
			</g>
			<g id="XMLID_991_">
				<path id="XMLID_992_" d="M261.6,428h-8.4c-1.1,0-2-0.9-2-2s0.9-2,2-2h6.6l4-40.6c0-0.1,0-0.2,0-0.2l5.5-28.2
					c0.2-1.1,1.3-1.8,2.3-1.6c1.1,0.2,1.8,1.2,1.6,2.3l-5.5,28.1l-4.2,42.3C263.4,427.1,262.6,428,261.6,428z"/>
			</g>
			<g id="XMLID_989_">
				<path id="XMLID_990_" d="M259.7,428h-7.4c-1,0-1.9-0.9-2-1.9l-4.2-42.3l-8.2-42.6c-0.2-1.1,0.5-2.1,1.6-2.3
					c1.1-0.2,2.1,0.5,2.3,1.6l8.3,42.6c0,0.1,0,0.2,0,0.3l4,40.6h5.6c1.1,0,2,0.9,2,2S260.8,428,259.7,428z"/>
			</g>
			<g id="XMLID_987_">
				<path id="XMLID_988_" d="M272.9,415h-31.6c-1.1,0-2-0.9-2-2s0.9-2,2-2h31.6c1.1,0,2,0.9,2,2S274,415,272.9,415z"/>
			</g>
			<g id="XMLID_985_">
				<path id="XMLID_986_" d="M278.2,399h-42.1c-1.1,0-2-0.9-2-2s0.9-2,2-2h42.1c1.1,0,2,0.9,2,2S279.3,399,278.2,399z"/>
			</g>
			<g id="XMLID_983_">
				<path id="XMLID_984_" d="M278.2,382h-42.1c-1.1,0-2-0.9-2-2s0.9-2,2-2h42.1c1.1,0,2,0.9,2,2S279.3,382,278.2,382z"/>
			</g>
			<g id="XMLID_981_">
				<path id="XMLID_982_" d="M78.7,330h-7.1c-1.1,0-2-0.9-2-2s0.9-2,2-2h5.3l4-44.2c0-0.1,0-0.1,0-0.2l6.3-25.9
					c0.3-1.1,1.3-1.7,2.4-1.4c1.1,0.3,1.7,1.3,1.5,2.4l-6.2,25.8l-4.1,45.9C80.6,329.4,79.7,330,78.7,330z"/>
			</g>
			<g id="XMLID_979_">
				<path id="XMLID_980_" d="M78.2,330h-8.7c-1,0-1.9-0.6-2-1.6l-4.2-46.1l-7.6-42.5c-0.2-1.1,0.5-2.1,1.6-2.3
					c1.1-0.2,2.1,0.5,2.3,1.6l7.6,42.7c0,0.1,0-0.1,0-0.1l4,44.2h6.9c1.1,0,2,0.9,2,2S79.3,330,78.2,330z"/>
			</g>
			<g id="XMLID_977_">
				<path id="XMLID_978_" d="M91.4,317H59.8c-1.1,0-2-0.9-2-2s0.9-2,2-2h31.6c1.1,0,2,0.9,2,2S92.5,317,91.4,317z"/>
			</g>
			<g id="XMLID_975_">
				<path id="XMLID_976_" d="M96.6,301H54.5c-1.1,0-2-0.4-2-1.5s0.9-1.5,2-1.5h42.1c1.1,0,2,0.4,2,1.5S97.7,301,96.6,301z"/>
			</g>
			<g id="XMLID_973_">
				<path id="XMLID_974_" d="M96.6,284H54.5c-1.1,0-2-0.9-2-2s0.9-2,2-2h42.1c1.1,0,2,0.9,2,2S97.7,284,96.6,284z"/>
			</g>
			<g id="XMLID_971_">
				<path id="XMLID_972_" d="M211.6,391.9c-0.2,0-0.4-0.1-0.6-0.2L74.1,315.8c-0.6-0.4-0.9-1.2-0.5-1.8c0.4-0.6,1.2-0.9,1.8-0.5
					l136.8,75.9c0.6,0.4,0.9,1.2,0.5,1.8C212.5,391.6,212,391.9,211.6,391.9z"/>
			</g>
			<g id="XMLID_969_">
				<path id="XMLID_970_" d="M258,418.1c-0.7,0-1.2-0.5-1.3-1.2c-0.1-0.7,0.4-1.4,1.2-1.4l74-7.9c0.7-0.1,1.4,0.4,1.4,1.2
					c0.1,0.7-0.4,1.4-1.2,1.4l-74,7.9C258.1,418.1,258,418.1,258,418.1z"/>
			</g>
			<g id="XMLID_965_">
				<path id="XMLID_966_" d="M187.5,331.4c-7.8,0-14.2-6.4-14.2-14.2c0-2,0.4-3.9,1.2-5.8c-0.7-0.4-1.4-0.8-2-1.3
					c-0.3-0.3-0.5-0.7-0.5-1.1c0-0.4,0.2-0.8,0.6-1.1c4.8-3,6.7-9.3,4.4-14.5c-0.4-0.8-0.8-1.6-1.4-2.3c-0.4-0.5-0.4-1.1,0-1.6
					c0.3-0.5,0.9-0.7,1.5-0.5c5.2,1.7,10.6,3.5,16.7,5.4c0.2,0.1,0.4,0.2,0.5,0.3c0.2,0,0.4,0,0.6,0c6.2,1.9,12.7,3.8,19.3,5.7
					c0.4,0.1,0.7,0.4,0.9,0.8c1.1,2.6,1.3,5.4,0.8,8.2c-1.4,6.9-7.7,11.7-14.7,11.3C199.6,327.1,194,331.4,187.5,331.4z
					 M175.6,309.1c0.4,0.2,0.8,0.4,1.2,0.5c0.4,0.1,0.6,0.4,0.8,0.8c0.1,0.4,0.1,0.8-0.1,1.1c-1,1.8-1.5,3.7-1.5,5.7
					c0,6.4,5.2,11.5,11.5,11.5c5.6,0,10.4-4,11.4-9.6c0.1-0.7,0.8-1.2,1.5-1.1c6,0.9,11.7-3.1,12.9-9.1c0.4-2,0.3-4.1-0.4-6
					c-6.1-1.7-12.2-3.5-18.1-5.3c-0.1,0.1-0.2,0.2-0.3,0.3c-0.4,0.3-0.9,0.4-1.3,0.2c-0.4-0.2-0.8-0.6-0.8-1c0-0.1,0-0.2,0-0.2
					c-4.6-1.4-8.8-2.8-12.8-4.1C181.9,298.5,180.3,305.2,175.6,309.1z"/>
			</g>
			<g id="XMLID_961_">
				<path id="XMLID_962_" d="M166.5,312.5c-1.7,0-3.4-0.3-5-0.9c-3.5-1.3-6.3-4-7.9-7.4c0-0.1-0.1-0.2-0.1-0.3
					c-5.5,2-11.7,0.4-15.5-4c-2,3-5.1,5.1-8.7,5.9c-7.6,1.7-15.2-3.1-16.9-10.7c-0.4-1.9-0.5-3.9-0.1-5.8c0.1-0.4,0.4-0.8,0.8-1
					c0.4-0.2,0.9-0.1,1.2,0.1c2.2,1.5,4.9,2.2,7.6,1.9c5.6-0.5,10-5,10.4-10.6c0.1-0.7,0.7-1.3,1.4-1.2c2.4,0.1,4.8-0.5,6.8-1.9
					c0.4-0.2,0.8-0.3,1.2-0.1c4.2,1.6,8.8,3.3,13.9,5.2l0.3,0.1c0.1,0,0.3,0.1,0.4,0.1c1.1,0.4,2.2,0.8,3.3,1.2l1,0.4
					c0.3,0.1,0.5,0.3,0.7,0.6c0.1,0.2,0.2,0.4,0.3,0.6c0,0.1,0.1,0.2,0.1,0.3c0.4-0.2,0.8-0.3,1.3-0.4c0.3-0.1,0.5-0.1,0.8,0
					c4.9,1.7,9.3,3.2,13.5,4.6c0.2,0.1,0.5,0.2,0.6,0.4c0.7,0.9,1.2,1.8,1.7,2.8c2.9,6.4,0.6,14.1-5.4,17.8
					c-0.6,0.3-1.1,0.7-1.7,0.9C170.4,312.1,168.4,312.5,166.5,312.5z M154.1,300.7c0.2,0,0.3,0,0.5,0.1c0.4,0.1,0.7,0.5,0.8,0.8
					c0.2,0.5,0.3,1,0.5,1.4c1.3,2.8,3.5,5,6.4,6.1c2.9,1.1,6,1,8.8-0.3c0.5-0.2,1-0.5,1.4-0.8c4.8-3,6.7-9.3,4.4-14.5c0,0,0,0,0,0
					c-0.3-0.7-0.7-1.3-1.1-2c-3.9-1.3-8.1-2.7-12.7-4.4c-0.5,0.1-0.9,0.3-1.4,0.5l-0.1,0.1c-0.1,0-0.2,0.1-0.3,0.1
					c-0.3,0.1-0.7,0.1-1.1,0c-0.3-0.2-0.6-0.4-0.7-0.8c-0.2-0.5-0.3-0.9-0.5-1.3l-0.5-0.2c-1.1-0.4-2.2-0.8-3.3-1.2
					c-0.1,0-0.3-0.1-0.4-0.2l-0.3-0.1c-4.9-1.8-9.3-3.4-13.3-5c-2,1.2-4.2,1.8-6.6,1.9c-1,6.3-6.1,11.2-12.6,11.8
					c-2.6,0.3-5.2-0.2-7.5-1.3c0,1,0.1,1.9,0.3,2.9c1.4,6.2,7.6,10.1,13.8,8.7c3.5-0.8,6.4-3.1,7.9-6.3c0.2-0.4,0.6-0.7,1.1-0.7
					c0.5,0,0.9,0.2,1.2,0.6c3.1,4.8,9.3,6.6,14.4,4.3c0.1,0,0.2-0.1,0.2-0.1C153.7,300.8,153.9,300.7,154.1,300.7z"/>
			</g>
			<g id="XMLID_957_">
				<path id="XMLID_958_" d="M120.7,293c-2.8,0-5.6-0.8-8-2.4c-3.5-2.4-5.7-6.2-6.2-10.4c-0.2-2,0-4,0.7-5.9
					c-4.9-1.9-8.5-6.5-9-11.8c0-0.1,0-0.2,0-0.3c-5.3,0.2-10.3-2.7-12.9-7.5c-0.3-0.5-0.2-1.1,0.2-1.5c0.4-0.4,1-0.5,1.5-0.3
					c4.9,2.3,10.1,4.8,15.7,7.3c7.4,3.4,14.4,6.4,21.2,9.2c5.9,2.5,11.8,4.8,17.6,7.1c0.5,0.2,0.8,0.6,0.8,1.1
					c0.1,0.5-0.2,1-0.6,1.2c-2.1,1.4-4.6,2.2-7.1,2.3c-1,6.3-6.1,11.2-12.6,11.8C121.6,292.9,121.1,293,120.7,293z M100,262.2
					C100,262.2,100,262.2,100,262.2c1,4.7,4.3,8.8,8.9,10c0.4,0.1,0.9,0.4,1.1,0.7c0.2,0.3,0.3,0.7,0.1,1.1
					c-0.8,1.9-1.1,3.9-0.9,5.9c0.3,3.4,2.2,6.5,5,8.4c2.2,1.5,4.9,2.2,7.6,1.9c5.6-0.5,10-5,10.4-10.6c0.1-0.7,0.7-1.3,1.4-1.2
					c1.5,0.1,2.9-0.1,4.3-0.6c-4.9-1.9-9.9-3.9-14.8-6c-6.9-2.9-14.3-5.9-21.7-9.2C101,262.5,100,262.3,100,262.2z"/>
			</g>
			<g id="XMLID_953_">
				<path id="XMLID_954_" d="M770.1,294.3c-3.3,0-6.4-1.1-9-3.2c-1.5-1.3-2.8-2.8-3.7-4.6c-4.8,2.1-10.6,1.4-14.7-2
					c-0.1-0.1-0.2-0.1-0.2-0.2c-3.7,3.9-9.2,5.4-14.4,3.8c-0.5-0.2-0.9-0.7-0.9-1.2c0-0.6,0.3-1.1,0.9-1.3
					c5.1-1.8,10.6-3.8,16.3-5.9c7.6-2.9,14.7-5.7,21.5-8.5c5.9-2.4,11.8-4.9,17.4-7.4c0.5-0.2,1-0.1,1.4,0.2s0.6,0.8,0.5,1.3
					c-0.5,2.5-1.7,4.8-3.4,6.7c3.8,5.2,3.6,12.3-0.6,17.3c-2.1,2.6-5,4.3-8.3,4.9C771.9,294.2,771,294.3,770.1,294.3z M758,283.3
					c0.2,0,0.3,0,0.4,0.1c0.4,0.1,0.6,0.4,0.8,0.8c0.7,1.9,1.9,3.6,3.5,4.8c2.7,2.2,6.1,3.1,9.5,2.4c2.6-0.5,5-1.9,6.7-4
					c3.6-4.3,3.5-10.6-0.2-14.9c-0.5-0.5-0.4-1.3,0.1-1.8c1.1-1,2-2.2,2.6-3.5c-4.8,2.1-9.8,4.2-14.7,6.2
					c-6.9,2.8-13.9,5.4-21.6,8.3c-0.3,0.1-0.6,0.1-0.8,0.1h0c3.7,4,8.9,3.7,13.1,1.3C757.6,283.2,757.8,283.3,758,283.3z"/>
			</g>
		</g>
		<g id="XMLID_950_">
			<path id="XMLID_951_" d="M258,418.1c-0.2,0-0.4-0.1-0.6-0.2L225.3,400c-0.6-0.4-0.9-1.2-0.5-1.8c0.4-0.6,1.2-0.9,1.8-0.5
				l32.1,17.9c0.6,0.4,0.9,1.2,0.5,1.8C258.9,417.9,258.4,418.1,258,418.1z"/>
		</g>
	</g>
	<g id="XMLID_81_">
	</g>
	<g id="XMLID_82_">
	</g>
	<g id="XMLID_83_">
	</g>
	<g id="XMLID_84_">
	</g>
	<g id="XMLID_85_">
	</g>
	<g id="XMLID_86_">
	</g>
	<g id="XMLID_87_">
	</g>
	<g id="XMLID_88_">
	</g>
	<g id="XMLID_89_">
	</g>
	<g id="XMLID_90_">
	</g>
	<g id="XMLID_91_">
	</g>
	<g id="XMLID_92_">
	</g>
	<g id="XMLID_93_">
	</g>
	<g id="XMLID_94_">
	</g>
	<g id="XMLID_95_">
	</g>
</g>
</svg>
